<?xml version="1.0" standalone="no"?>
<!DOCTYPE svg PUBLIC "-//W3C//DTD SVG 1.1//EN" "http://www.w3.org/Graphics/SVG/1.1/DTD/svg11.dtd" >
<svg xmlns="http://www.w3.org/2000/svg">
<metadata>Generated by IcoMoon</metadata>
<defs>
<font id="symbols" horiz-adv-x="1024">
<font-face units-per-em="1024" ascent="1024" descent="0" />
<missing-glyph horiz-adv-x="1024" />
<glyph unicode="&#x20;" horiz-adv-x="280" d="" />
<glyph unicode="&#xe003;" glyph-name="uniE003" d="M64 960h896v-896h-896v896zM904 120v784h-784v-784h784z" />
<glyph unicode="&#xe07f;" glyph-name="uniE07F" d="M1.5 512q5.5 66 30.75 127t68.25 111.5l45-45.5q-34.5-41-54.5-90.5t-25.5-102.5h-64zM145.5 795.5q50.5 43 111.5 68.25t127 30.75v-64q-53-5.5-102.5-25.5t-90.5-54.5zM100.5 209.5q-43 50.5-68.25 111.5t-30.75 127h64q5.5-53 25.5-102.5t54.5-90.5zM384 65.5q-66 5.5-127 30.75t-111.5 68.25l45.5 45q41-34.5 90.5-54.5t102.5-25.5v-64zM830.5 448q-5.5-66-30.75-127t-68.25-111.5l-45 45.5q34.5 41 54.5 90.5t25.5 102.5h64zM686.5 164.5q-50.5-43-111.5-68.25t-127-30.75v64q53 5.5 102.5 25.5t90.5 54.5zM512 960v-384h96l-128-128-128 128h96v384h64zM896 416v96h-261.5l64 64h197.5v96l128-128z" />
<glyph unicode="&#xe096;" glyph-name="uniE00E6" d="M766.5 46.5l-45-45-511 510.5 511 510.5 45-45-465-465.5 465-465.5z" />
<glyph unicode="&#xe097;" glyph-name="uniE00F6" d="M257.5 46.5l465 465.5-465 465.5 45 45 511-510.5-511-510.5-45 45z" />
<glyph unicode="&#xe098;" glyph-name="uniE0106" d="M977.5 257.5l-465.5 465-465.5-465-45 45 510.5 511 510.5-511-45-45z" />
<glyph unicode="&#xe099;" glyph-name="uniE0116" d="M512 333l457.5 457.5 45-45-502.5-502.5-502.5 502.5 45 45 457.5-457.5z" />
<glyph unicode="&#xe105;" glyph-name="uniE105" d="M896 960q13.5 0 25-5t20.25-13.75 13.75-20.25 5-25v-832h-781.5l-114.5 115v717q0 13.5 5 25t13.75 20.25 20.25 13.75 25 5h768zM256 576h512v320h-512v-320zM640 320h-320v-192h64v128h64v-128h192v192zM896 896h-64v-384h-640v384h-64v-690.5l77-77.5h51v256h448v-256h192v768z" />
<glyph unicode="&#xe106;" glyph-name="uniE106" d="M548.806 512l369.694-370.098-36.402-36.402-370.098 369.694-370.098-369.694-36.402 36.402 369.694 370.098-369.694 370.098 36.402 36.402 370.098-369.694 370.098 369.694 36.402-36.402z" />
<glyph unicode="&#xe108;" glyph-name="uniE108" d="M1024 480h-1024v64h1024v-64z" />
<glyph unicode="&#xe10c;" glyph-name="uniE10C" d="M128 576q13.5 0 25-5t20.25-13.75 13.75-20.25 5-25-5-25-13.75-20.25-20.25-13.75-25-5-25 5-20.25 13.75-13.75 20.25-5 25 5 25 13.75 20.25 20.25 13.75 25 5zM512 576q13.5 0 25-5t20.25-13.75 13.75-20.25 5-25-5-25-13.75-20.25-20.25-13.75-25-5-25 5-20.25 13.75-13.75 20.25-5 25 5 25 13.75 20.25 20.25 13.75 25 5zM896 576q13.5 0 25-5t20.25-13.75 13.75-20.25 5-25-5-25-13.75-20.25-20.25-13.75-25-5-25 5-20.25 13.75-13.75 20.25-5 25 5 25 13.75 20.25 20.25 13.75 25 5z" />
<glyph unicode="&#xe117;" glyph-name="uniE117" d="M512 64q77 0 147.75 23.75t129 67 101.5 104 65.75 134.75l61-19q-25-83.5-74.5-152.25t-116.25-118.25-147-76.75-167.25-27.25q-68.5 0-133.5 17t-122.75 49.25-106.75 78.5-85 104.75v-121.5h-64v256h256v-64h-158q29.5-58.5 73.25-105.75t97.75-80.5 115.75-51.5 127.25-18.25zM1024 896v-256h-256v64h158q-29.5 58.5-73.25 105.75t-97.75 80.5-115.75 51.5-127.25 18.25q-77 0-147.75-23.75t-129-67-101.5-104-65.75-134.75l-61 19q25 83 74.5 152t116.25 118.5 147 76.75 167.25 27.25q68.5 0 133.5-17t122.75-49.25 106.75-78.5 85-104.75v121.5h64z" />
<glyph unicode="&#xe11b;" glyph-name="uniE11B" d="M480 64h64v-64h-64v64zM512 1024q39.5 0 76.25-10.25t68.75-29 58.5-45.25 45.25-58.5 29-68.75 10.25-76.25q0-42-11-76t-29-62.25-41-52.25-47-46.5-47-44.75-41-47.25-29-54-11-65v-96h-64v96q0 42 11 76t29 62.25 41 52 47 46.25 47 45 41 47.5 29 54 11 65q0 46.5-17.75 87.25t-48 71-71 48-87.25 17.75-87.25-17.75-71-48-48-71-17.75-87.25h-64q0 39.5 10.25 76.25t29 68.75 45.25 58.5 58.5 45.25 68.75 29 76.25 10.25z" />
<glyph unicode="&#xe120;" glyph-name="uniE120" d="M0 832h1024v-512l-64 64v348.5l-448-224.5-448 224.5v-476.5h512v-64h-576v640zM512 580l376.5 188h-753zM817.5 337.5l45 45 158.5-158.5-158.5-158.5-45 45 81.5 81.5h-259v64h259z" />
<glyph unicode="&#xe126;" glyph-name="uniE126" d="M0 800h1024v-576h-1024v576zM64 736v-448h640v448h-640zM960 288v448h-192v-448h192zM494.5 670.5l158.5-158.5-158.5-158.5-45 45 81 81.5h-210.5v64h210.5l-81 81.5z" />
<glyph unicode="&#xe127;" glyph-name="uniE127" d="M0 800h1024v-576h-1024v576zM64 736v-448h640v448h-640zM960 288v448h-192v-448h192zM640 544v-64h-210.5l81-81.5-45-45-158.5 158.5 158.5 158.5 45-45-81-81.5h210.5z" />
<glyph unicode="&#xe12b;" glyph-name="uniE12B" d="M512 1024q70.5 0 136-18.25t122.5-51.5 103.75-80 80-103.75 51.5-122.5 18.25-136-18.25-136-51.5-122.5-80-103.75-103.75-80-122.5-51.5-136-18.25-136 18.25-122.5 51.5-103.75 80-80 103.75-51.5 122.25-18.25 136.25q0 70.5 18.25 136t51.5 122.5 80 103.75 103.75 80 122.25 51.5 136.25 18.25zM916.5 704q-19 40.5-46 76.25t-60 65.25-71.5 52.5-80.5 37.5q18-25 32.5-53t25.75-57.75 19.25-60.25 14-60.5h166.5zM960 512q0 66.5-18.5 128h-181.5q4-32 6-63.75t2-64.25-2-64.25-6-63.75h181.5q18.5 61.5 18.5 128zM512 64q24.5 0 45.75 13.5t39.25 35.5 32.25 49.75 25.25 56.25 18.5 55 11.5 46h-345q4-19.5 11.5-46t18.5-55 25.25-56.25 32.25-49.75 39.25-35.5 45.75-13.5zM695.5 384q4 32 6.25 63.75t2.25 64.25-2.25 64.25-6.25 63.75h-367q-4-32-6.25-63.75t-2.25-64.25 2.25-64.25 6.25-63.75h367zM64 512q0-66.5 18.5-128h181.5q-4 32-6 63.75t-2 64.25 2 64.25 6 63.75h-181.5q-18.5-61.5-18.5-128zM512 960q-24.5 0-45.75-13.5t-39.25-35.5-32.25-49.75-25.25-56.25-18.5-55-11.5-46h345q-4 19.5-11.5 46t-18.5 55-25.25 56.25-32.25 49.75-39.25 35.5-45.75 13.5zM365.5 935.5q-42-14.5-80.5-37.5t-71.5-52.5-60-65.25-46-76.25h166.5q6 30 14 60.5t19.25 60.25 25.75 57.75 32.5 53zM107.5 320q19-40.5 46-76.25t60-65.25 71.5-52.5 80.5-37.5q-18 25-32.5 53t-25.75 57.75-19.25 60.25-14 60.5h-166.5zM658.5 88.5q42 14.5 80.5 37.5t71.5 52.5 60 65.25 46 76.25h-166.5q-6-30-14-60.5t-19.25-60.25-25.75-57.75-32.5-53z" />
<glyph unicode="&#xe12c;" glyph-name="uniE12C" d="M320 896v-64h-64v64h64zM704 832v64h64v-64h-64zM320 768v-64h-64v64h64zM704 704v64h64v-64h-64zM256 128v64h64v-64h-64zM704 128v64h64v-64h-64zM256 256v64h64v-64h-64zM704 256v64h64v-64h-64zM0 384v256h64v-256h-64zM128 384v256h64v-256h-64zM832 384v256h64v-256h-64zM960 640h64v-256h-64v256zM256 384v256h512v-256h-512zM320 576v-128h384v128h-384z" />
<glyph unicode="&#xe14e;" glyph-name="uniE14E" d="M0 960v64h64v-64h-64zM0 832v64h64v-64h-64zM0 704v64h64v-64h-64zM0 576v64h64v-64h-64zM0 448v64h64v-64h-64zM0 320v64h64v-64h-64zM0 192v64h64v-64h-64zM0 64v64h64v-64h-64zM896 832v64h64v-64h-64zM896 704v64h64v-64h-64zM896 576v64h64v-64h-64zM896 448v64h64v-64h-64zM896 320v64h64v-64h-64zM896 192v64h64v-64h-64zM896 64v64h64v-64h-64zM192 1024v-64h-64v64h64zM320 1024v-64h-64v64h64zM448 1024v-64h-64v64h64zM576 1024v-64h-64v64h64zM704 1024v-64h-64v64h64zM768 960v64h64v-64h-64zM128 64v64h64v-64h-64zM256 64v64h64v-64h-64zM384 64v64h64v-64h-64zM512 64v64h64v-64h-64zM640 64v64h64v-64h-64zM768 64v64h64v-64h-64zM896 1024h64v-64h-64v64zM768 832v-576h-576v576h576zM704 576v192h-192v-192h192zM448 768h-192v-192h192v192zM256 512v-192h192v192h-192zM512 320h192v192h-192v-192z" />
<glyph unicode="&#xe162;" glyph-name="uniE162" d="M832 928h192v-896h-1024v896h192v64h64v-64h512v64h64v-64zM192 864h-128v-128h896v128h-128v-64h-64v64h-512v-64h-64v64zM64 96h896v576h-896v-576zM384 160v448h64v-448h-64zM192 160v448h64v-448h-64zM768 160v448h64v-448h-64zM576 160v448h64v-448h-64z" />
<glyph unicode="&#xe167;" glyph-name="uniE167" d="M768 640v-64q38 0 72.75-8.75t61.25-28 42.25-49.5 15.75-73.75q0-33-12.75-62t-34.5-50.75-50.75-34.5-62-12.75h-256q-33 0-62 12.75t-50.75 34.5-34.5 50.75-12.75 62q0 43.5 15.75 73.75t42.25 49.5 61.25 28 72.75 8.75v64h-32q-46.5 0-87.25-17.75t-71-48-48-71-17.75-87.25 17.75-87.25 48-71 71-48 87.25-17.75h256q46.5 0 87.25 17.75t71 48 48 71 17.75 87.25-17.75 87.25-48 71-71 48-87.25 17.75h-32zM448 384v64q38 0 72.75 8.75t61.25 28 42.25 49.5 15.75 73.75q0 33-12.75 62t-34.5 50.75-50.75 34.5-62 12.75h-256q-33 0-62-12.75t-50.75-34.5-34.5-50.75-12.75-62q0-43.5 15.75-73.75t42.25-49.5 61.25-28 72.75-8.75v-64h-32q-46.5 0-87.25 17.75t-71 48-48 71-17.75 87.25 17.75 87.25 48 71 71 48 87.25 17.75h256q46.5 0 87.25-17.75t71-48 48-71 17.75-87.25-17.75-87.25-48-71-71-48-87.25-17.75h-32z" />
<glyph unicode="&#xe16c;" glyph-name="uniE16C" d="M768 832v-608q0-46.5-17.75-87.25t-48-71-71-48-87.25-17.75-87.25 17.75-71 48-48 71-17.75 87.25v640q0 33 12.75 62t34.5 50.75 50.75 34.5 62 12.75 62-12.75 50.75-34.5 34.5-50.75 12.75-62v-640q0-20-7.5-37.5t-20.5-30.5-30.5-20.5-37.5-7.5-37.5 7.5-30.5 20.5-20.5 30.5-7.5 37.5v544h64v-544q0-13 9.5-22.5t22.5-9.5 22.5 9.5 9.5 22.5v640q0 20-7.5 37.5t-20.5 30.5-30.5 20.5-37.5 7.5-37.5-7.5-30.5-20.5-20.5-30.5-7.5-37.5v-640q0-33 12.75-62t34.5-50.75 50.75-34.5 62-12.75 62 12.75 50.75 34.5 34.5 50.75 12.75 62v608h64z" />
<glyph unicode="&#xe16e;" glyph-name="uniE16E" d="M0 960h1024v-109.5l-384-384v-402.5h-256v402.5l-384 384v109.5zM960 877.5v18.5h-896v-18.5l384-384v-365.5h128v365.5z" />
<glyph unicode="&#xe179;" glyph-name="uniE179" d="M0 320v192h192v-192h-192zM64 448v-64h64v64h-64zM0 576v192h192v-192h-192zM64 704v-64h64v64h-64zM0 832v192h192v-192h-192zM64 960v-64h64v64h-64zM320 640v64h576v-64h-576zM768 448v-64h-448v64h448zM320 960h704v-64h-704v64zM0 64v192h192v-192h-192zM64 192v-64h64v64h-64zM320 128v64h576v-64h-576z" />
<glyph unicode="&#xe17d;" glyph-name="uniE17D" d="M1022.5 414.5l-158.5 158.5-158.5-158.5 45-45 81 81.5v-291.5h64.5v291.5l81.5-81.5 45 45zM896 831.5h-576.5v64.5h576.5v-64.5zM768 191.5h-448.5v64.5h448.5v-64.5zM192 768h-192v192h192v-192zM64 832h64v64h-64v-64zM192 448h-192v192h192v-192zM64 512h64v64h-64v-64zM192 128h-192v192h192v-192zM64 192h64v64h-64v-64zM704 512h-384v64h448l-64-64z" />
<glyph unicode="&#xe183;" glyph-name="uniE11C3" d="M800 1024v-64h-576v64h576zM822.5 534.5l-45-45-233.5 235v-724.5h-64v724.5l-233.5-235-45 45 310.5 313z" />
<glyph unicode="&#xe1c4;" glyph-name="uniE1C4" d="M992 0h-960l192 576h256v131q-28 6-51.5 20.5t-40.5 35.25-26.5 46.75-9.5 54.5q0 33 12.5 62t34.25 50.75 51 34.5 62.25 12.75 62-12.75 50.75-34.5 34.5-50.75 12.75-62q0-28.5-9.5-54.5t-26.5-46.75-40.5-35.25-51.5-20.5v-131h256zM416 864q0-20 7.5-37.5t20.5-30.5 30.5-20.5 37.5-7.5 37.5 7.5 30.5 20.5 20.5 30.5 7.5 37.5-7.5 37.5-20.5 30.5-30.5 20.5-37.5 7.5-37.5-7.5-30.5-20.5-20.5-30.5-7.5-37.5zM121 64h782l-149 448h-210v-240q0-4.5-3.75-7.75t-9-5-10.5-2.5-8.75-0.75-8.75 0.75-10.5 2.5-9 5-3.75 7.75v240h-210z" />
<glyph unicode="&#xe249;" glyph-name="uniE00A3" d="M1024 640l-316-243 124-397-320 246-320-246 124 397-316 243h392l120 384 120-384h392z" />
<glyph unicode="&#xe24a;" glyph-name="uniE1CE3" d="M708 397l124-397-320 246-320-246 124 397-316 243h392l120 384 120-384h392zM710.5 174q-19 62-38 123.25t-39 123.25q51.5 38.5 101.5 77.5t101 78h-251l-73 233.5-73-233.5h-251q51-39 101-78t101.5-77.5q-20-62-39-123.25t-38-123.25l198.5 153z" />
<glyph unicode="&#xe292;" glyph-name="uniE14C3" d="M0 384v64h64v-64h-64zM0 576v64h64v-64h-64zM192 576v64h832v-64h-832zM0 768v64h64v-64h-64zM192 832h832v-64h-832v64zM192 384v64h832v-64h-832zM0 192v64h64v-64h-64zM192 192v64h832v-64h-832z" />
<glyph unicode="&#xe2ac;" glyph-name="uniE2AC" d="M448 960h512v-896h-896v512h192v128h-192v256h256v-192h128v192zM512 896v-128h128v128h-128zM128 768h128v128h-128v-128zM320 704v-128h128v128h-128zM128 512v-128h128v128h-128zM896 128v768h-192v-192h-192v-192h-192v-192h-192v-192h768z" />
<glyph unicode="&#xe2f6;" glyph-name="uniE2F6" d="M960 640q13 0 24.75-5t20.5-13.75 13.75-20.5 5-24.75v-448h-256v-128h-512v128h-256v448q0 13 5 24.75t13.75 20.5 20.5 13.75 24.75 5h192v384h512v-384h192zM320 640h384v320h-384v-320zM704 320h-384v-256h384v256zM960 576h-896v-384h192v192h512v-192h192v384zM160 512q13 0 22.5-9.5t9.5-22.5-9.5-22.5-22.5-9.5-22.5 9.5-9.5 22.5 9.5 22.5 22.5 9.5z" />
<glyph unicode="&#xe700;" glyph-name="uniE700" d="M1024 704h-1024v64h1024v-64zM1024 192h-1024v64h1024v-64zM1024 448.5h-1024v63.5h1024v-63.5z" />
<glyph unicode="&#xe713;" glyph-name="uniE1152" d="M891.5 530q0-4.5 0.25-9t0.25-9-0.25-9-0.25-9l129.5-80.5-79.5-191.5-148.5 34q-12-13-25-25l34-148.5-191.5-79.5-80.5 129.5q-4.5 0-9-0.25t-9-0.25-9 0.25-9 0.25l-80.5-129.5-191.5 79.5 34 148.5q-13 12-25 25l-148.5-34-79.5 191.5 129.5 80.5q0 4.5-0.25 9t-0.25 9 0.25 9 0.25 9l-129.5 80.5 79.5 191.5 148.5-34q12 13 25 25l-34 148.5 191.5 79.5 80.5-129.5q4.5 0 9 0.25t9 0.25 9-0.25 9-0.25l80.5 129.5 191.5-79.5-34-148.5q13-12 25-25l148.5 34 79.5-191.5zM833 465q1 12 2 23.75t1 23.75q0 11.5-1 23.5t-2 23.5l118 73.5-43 104-135.5-31.5q-15.5 19-31.75 35t-35.25 32l31.5 135.5-104 43-74-118q-11.5 1-23.5 2t-23.5 1q-12 0-23.75-1t-23.75-2l-73.5 118-104-43 31.5-135.5q-19-15.5-35-31.75t-32-35.25l-135.5 31.5-43-104 118-74q-1-12-2-23.75t-1-23.75q0-11.5 1-23.5t2-23.5l-118-73.5 43-104 135.5 31.5q15.5-19 31.75-35t35.25-32l-31.5-135.5 104-43 74 118q11.5-1 23.5-2t23.5-1q12 0 23.75 1t23.75 2l73.5-118 104 43-31.5 135.5q19 15.5 35 31.75t32 35.25l135.5-31.5 43 104zM512 700q39 0 73.25-14.75t59.75-40.25 40.25-59.75 14.75-73.25-14.75-73.25-40.25-59.75-59.75-40.25-73.25-14.75-73.25 14.75-59.75 40.25-40.25 59.75-14.75 73.25 14.75 73.25 40.25 59.75 59.75 40.25 73.25 14.75zM512 380q27.5 0 51.5 10.25t42 28.25 28.25 42 10.25 51.5-10.25 51.5-28.25 42-42 28.25-51.5 10.25-51.5-10.25-42-28.25-28.25-42-10.25-51.5 10.25-51.5 28.25-42 42-28.25 51.5-10.25z" />
<glyph unicode="&#xe71a;" glyph-name="uniE15B2" d="M64 960h896v-896h-896v896zM896 128v768h-768v-768h768z" />
<glyph unicode="&#xe71e;" glyph-name="uniE1A32" d="M1024 35q0-14-8.5-24.5t-23.5-10.5q-13 0-22.5 9.5l-392.5 392q-48-39.5-105.25-60.5t-119.75-21q-48.5 0-93.5 12.5t-84 35.5-71.25 55.25-55.25 71.25-35.5 84-12.5 93.5 12.5 93.5 35.5 84 55.25 71.25 71.25 55.25 84 35.5 93.5 12.5 93.5-12.5 84-35.5 71.25-55.25 55.25-71.25 35.5-84 12.5-93.5q0-62.5-21-119.75t-60.5-105.25q7.5-7.5 28.75-28.5t51-50 65-63.75 71-70.5 69.25-69.75 59.5-61.5 41.5-45.75 15.5-22.25zM352 384q59.5 0 112 22.75t91.5 61.75 61.75 91.5 22.75 112-22.75 112-61.75 91.5-91.5 61.75-112 22.75-112-22.75-91.5-61.75-61.75-91.5-22.75-112 22.75-112 61.75-91.5 91.5-61.75 112-22.75z" />
<glyph unicode="&#xe72a;" glyph-name="uniE0AB2" d="M550.5 982.5l470.5-470.5-470.5-470.5-45 45 393.5 393.5h-899v64h899l-393.5 393.5 45 45z" />
<glyph unicode="&#xe72b;" glyph-name="uniE0A62" d="M1024 544v-64h-899l393.5-393.5-45-45-470.5 470.5 470.5 470.5 45-45-393.5-393.5h899z" />
<glyph unicode="&#xe741;" glyph-name="uniE741" d="M832 512h64v-384h-384v64h274.5l-649 649.5 45 45 649.5-649v274.5z" />
<glyph unicode="&#xe742;" glyph-name="uniE742" d="M886.5 182.5l-45-45-649.5 650.5v-276h-64v384h384v-64h-274l648.5-649.5z" />
<glyph unicode="&#xe74a;" glyph-name="uniE1102" d="M982.5 550.5l-45-45-393.5 393.5v-899h-64v899l-393.5-393.5-45 45 470.5 470.5 470.5-470.5z" />
<glyph unicode="&#xe74b;" glyph-name="uniE1FD2" d="M937.5 518.5l45-45-470.5-470.5-470.5 470.5 45 45 393.5-393.5v899h64v-899l393.5 393.5z" />
<glyph unicode="&#xe759;" glyph-name="uniE759" d="M246.5 649.5l-137-137.5 137-137.5-45-45-183 182.5 183 182.5zM649.5 246.5l45-45-182.5-183-182.5 183 45 45 137.5-137zM1005.5 512l-183-182.5-45 45 137 137.5-137 137.5 45 45zM374.5 777.5l-45 45 182.5 183 182.5-183-45-45-137.5 137zM512 704q39.5 0 74.5-15t61.25-41.25 41.25-61.25 15-74.5q0-40-15-74.75t-41.25-61-61.25-41.25-74.5-15q-40 0-74.75 15t-61 41.25-41.25 61-15 74.75q0 39.5 15 74.5t41.25 61.25 61 41.25 74.75 15zM512 384q26.5 0 49.75 10t40.75 27.5 27.5 40.75 10 49.75-10 49.75-27.5 40.75-40.75 27.5-49.75 10-49.75-10-40.75-27.5-27.5-40.75-10-49.75 10-49.75 27.5-40.75 40.75-27.5 49.75-10z" />
<glyph unicode="&#xe75f;" glyph-name="uniE75F" horiz-adv-x="736" d="M148.572 877.714h-146.286v146.286h146.286v-146.286zM441.144 877.714h-146.286v146.286h146.286v-146.286zM733.715 877.714h-146.286v146.286h146.286v-146.286zM148.572 585.143h-146.286v146.286h146.286v-146.286zM441.144 585.143h-146.286v146.286h146.286v-146.286zM733.715 585.143h-146.286v146.286h146.286v-146.286zM148.572 292.571h-146.286v146.286h146.286v-146.286zM441.144 292.571h-146.286v146.286h146.286v-146.286zM441.144 0h-146.286v146.286h146.286v-146.286zM733.715 292.571h-146.286v146.286h146.286v-146.286z" />
<glyph unicode="&#xe769;" glyph-name="uniE1032" d="M320 128v768h64v-768h-64zM640 896h64v-768h-64v768z" />
<glyph unicode="&#xe777;" glyph-name="uniE777" d="M512 1024q70.5 0 136-18.25t122.5-51.5 103.75-80 80-103.75 51.5-122.5 18.25-136-18.25-136-51.5-122.5-80-103.75-103.75-80-122.5-51.5-136-18.25q-86 0-165.25 27.5t-144.5 77.25-113 118.75-70.25 152l61.5 17q20-72.5 61.75-132.75t98.75-103.75 126.5-67.75 144.5-24.25q61.5 0 118.75 16t107 45.25 90.75 70.25 70.25 90.75 45.25 106.75 16 119q0 61.5-16 118.75t-45.25 107-70.25 90.75-90.75 70.25-107 45.25-118.75 16q-64.5 0-125.5-18t-113.75-51.5-95.25-80.75-70-105.75h148.5v-64h-256v256h64v-137q33.5 61.5 81.5 110.5t106.25 83.25 124.25 52.75 136 18.5z" />
<glyph unicode="&#xe7b7;" glyph-name="uniE1392" d="M736 800q0-41.5-14.5-79.25t-40-67.5-60.75-49.5-76.75-25.25v-514.5l-32-64-32 64v514.5q-41.5 5.5-76.75 25.25t-60.75 49.5-40 67.5-14.5 79.25q0 46.5 17.5 87.25t48 71.25 71.25 48 87.25 17.5 87.25-17.5 71.25-48 48-71.25 17.5-87.25zM512 640q33 0 62 12.5t50.75 34.25 34.5 51 12.75 62.25-12.75 62-34.5 50.75-50.75 34.5-62 12.75-62.25-12.75-51-34.5-34.25-50.75-12.5-62 12.5-62.25 34.25-51 51-34.25 62.25-12.5z" />
<glyph unicode="&#xe7c1;" glyph-name="uniE1292" d="M576 896h384v-512h-448v128h-320v-512h-64v1024h448v-128zM192 576h320v384h-320v-384zM896 448v384h-320v-384h320z" />
<glyph unicode="&#xe7c3;" glyph-name="uniE1602" d="M896 749.5v-749.5h-832v1024h557.5zM640 768h146.5l-146.5 146.5v-146.5zM832 64v640h-256v256h-448v-896h704z" />
<glyph unicode="&#xe7c4;" glyph-name="uniE7C4" d="M201.112 149.5v725h621.776v-725h-621.776zM252.724 822.888v-621.776h518.552v621.776h-518.552zM874.5 771.276h155.444v-518.552h-155.444v52.22h103.832v414.112h-103.832v52.22zM-5.944 252.724v518.552h155.444v-52.22h-103.832v-414.112h103.832v-52.22h-155.444z" />
<glyph unicode="&#xe80a;" glyph-name="uniE80A" d="M0 1024h1024v-1024h-1024v1024zM960 704v256h-256v-256h256zM384 384h256v256h-256v-256zM640 320h-256v-256h256v256zM320 384v256h-256v-256h256zM384 704h256v256h-256v-256zM704 640v-256h256v256h-256zM320 960h-256v-256h256v256zM64 320v-256h256v256h-256zM704 64h256v256h-256v-256z" />
<glyph unicode="&#xe81c;" glyph-name="uniE81C" d="M512 768v-274.5l182.5-183-45-45-201.5 201v301.5h64zM984 711.5q40-96 40-199.5t-40-199.5q-39-91.5-110-162.5t-162.5-110q-96-40-199.5-40-87 0-168 28.5-79 27.5-144.5 78-65 50.5-111.5 119-23.5 34.5-40.75 72t-28.25 78l61.5 17q20-72.5 61.75-133t98.75-104 126.5-67.5 144.5-24q61.5 0 118.75 16t107 45.25 90.75 70.25 70.25 90.75 45.25 106.75 16 119q0 61.5-16 118.75t-45.25 107-70.25 90.75-90.75 70.25-107 45.25-118.75 16q-65 0-126-18.25t-113.75-51.75-95-80.75-69.75-105.25h148.5v-64h-256v256h64v-137q8.5 16 18.5 31.25t21 29.75q47 62.5 110 108 66 47 141.5 71.5t157 24.5q103.5 0 199.5-40 91.5-39 162.5-110t110-162.5z" />
<glyph unicode="&#xe82f;" glyph-name="uniE82F" d="M512 1024q48.5 0 93.5-12.5t84.25-35.5 71.25-55 55-71.25 35.5-84.25 12.5-93.5q0-72.5-27.5-134.5t-78.5-112.5q-41.5-41-63.75-91.5t-22.25-109.5v-128q0-20-7.5-37.5t-20.5-30.5-30.5-20.5-37.5-7.5h-128q-20 0-37.5 7.5t-30.5 20.5-20.5 30.5-7.5 37.5v128q0 59-22.25 109.5t-63.75 91.5q-51 50.5-78.5 112.5t-27.5 134.5q0 48.5 12.5 93.5t35.5 84.25 55 71.25 71.25 55 84.25 35.5 93.5 12.5zM576 64q13 0 22.5 9.5t9.5 22.5v96h-192v-96q0-13 9.5-22.5t22.5-9.5h128zM609.5 256q6.5 64.5 33 117t71.5 98q41.5 42 63.75 91.75t22.25 109.25-22.75 112-61.75 91.5-91.5 61.75-112 22.75-112-22.75-91.5-61.75-61.75-91.5-22.75-112 22.25-109.25 63.75-91.75q45-45.5 71.5-98t33-117h195z" />
<glyph unicode="&#xe839;" glyph-name="uniE839" d="M1024 320h-448v-128h192v-64h-448v64h192v128h-320v-192h-64v384h-128v384h1024v-576zM64 832v-64h192v64h-192zM64 576h192v128h-64v-64h-64v64h-64v-128zM192 384h768v448h-640v-320h-128v-128z" />
<glyph unicode="&#xe879;" glyph-name="uniE879" d="M512 1023.645l512-1023.289h-1024zM512 860.117l-393.46-786.93h786.93z" />
<glyph unicode="&#xe890;" glyph-name="uniE0522" d="M512 640q39.5 0 74.5-15t61.25-41.25 41.25-61.25 15-74.5q0-40-15-74.75t-41.25-61-61.25-41.25-74.5-15q-40 0-74.75 15t-61 41.25-41.25 61-15 74.75q0 39.5 15 74.5t41.25 61.25 61 41.25 74.75 15zM512 320q26.5 0 49.75 10t40.75 27.5 27.5 40.75 10 49.75-10 49.75-27.5 40.75-40.75 27.5-49.75 10-49.75-10-40.75-27.5-27.5-40.75-10-49.75 10-49.75 27.5-40.75 40.75-27.5 49.75-10zM512 896q71.5 0 142-17.75t133-52.25 113.25-85.25 82.75-116.75q20-41.5 30.5-85.75t10.5-90.25h-64q0 59-18 110.5t-49.75 94-74.75 76-92.75 56.5-104.25 35-108.5 12-108.5-12-104.25-35-92.75-56.5-74.75-76-49.75-94-18-110.5h-64q0 46 10.5 90.25t30.5 85.75q32 66 82.75 116.75t113.25 85.25 133 52.25 142 17.75z" />
<glyph unicode="&#xe8b4;" glyph-name="uniE14F2" d="M704 192h-704v448h704v-448zM640 576h-576v-320h576v320zM64 704h-64v64h64v-64zM64 832h-64v64h64v-64zM64 960h-64v64h64v-64zM448 960h-64v64h64v-64zM192 960h-64v64h64v-64zM320 960h-64v64h64v-64zM448 832h-64v64h64v-64zM448 704h-64v64h64v-64zM813.5 960q51-51 90.25-98.75t66-100 40.5-112.75 13.75-136.5q0-70.5-18.25-136t-51.5-122.5-80-103.75-103.75-80-122.5-51.5-136-18.25v64q61.5 0 118.75 16t107 45.25 90.75 70.25 70.25 90.75 45.25 107 16 118.75q0 66.5-12.75 121t-37 102-60 91-82.25 88.5v-146.5h-64v256h256v-64h-146.5z" />
<glyph unicode="&#xe8b8;" glyph-name="uniE1562" d="M626.5 486q33.5-16 59.75-40.25t44.5-54.25 27.75-64.5 9.5-71h-64q0 41-14.75 76t-40.5 60.75-60.75 40.5-76 14.75q-40.5 0-75.5-15t-60.75-40.75-40.75-60.75-15-75.5h-64q0 36.5 9.75 71t28.25 64.25 44.75 54 59.25 40.25q-36.5 27-57.25 68t-20.75 86.5q0 39.5 15.25 74.5t41.25 61 61 41.25 74.5 15.25 74.5-15.25 61-41.25 41.25-61 15.25-74.5q0-45.5-20.5-86.25t-57-67.75zM384 640q0-26.5 10.25-49.75t27.5-40.5 40.5-27.5 49.75-10.25q26 0 49.5 10.25t40.75 27.5 27.5 40.5 10.25 49.75q0 26-10.25 49.5t-27.5 40.75-40.75 27.5-49.5 10.25q-26.5 0-49.75-10.25t-40.5-27.5-27.5-40.75-10.25-49.5zM64 64h192v-64h-256v256h64v-192zM960 256h64v-256h-256v64h192v192zM1024 1024v-256h-64v192h-192v64h256zM64 768h-64v256h256v-64h-192v-192z" />
<glyph unicode="&#xe8cc;" glyph-name="uniE8CC" d="M256 256h-128v64h128v-64zM640 384h-128v64h128v-64zM960 896q13.5 0 25-5t20.25-13.75 13.75-20.25 5-25v-512q0-13.5-5-25t-13.75-20.25-20.25-13.75-25-5h-576v-128h-384v576h128v128q0 13.5 5 25t13.75 20.25 20.25 13.75 25 5h768zM320 640h-256v-448h256v448zM960 832h-768v-128h192v-384h576v512z" />
<glyph unicode="&#xe8d6;" glyph-name="uniE1892" d="M320 432q0-25.5-11-46.25t-29-35.5-41-22.5-47-7.75-47 7.75-41 22.5-29 35.5-11 46.25 11 46.25 29 35.5 41 22.5 47 7.75q16.5 0 33-3.75t31-11.25v431h64q0-32 14.25-57.5t38.25-46q35-30 55.25-67.75t20.25-84.75h-64q0 31.5-14.25 57.75t-38.25 45.75l-6 5t-5.5 5v-385.5zM192 384q10 0 21.25 3t20.75 9 15.75 15 6.25 21-6.25 21-15.75 15-20.75 9-21.25 3-21.25-3-20.75-9-15.75-15-6.25-21 6.25-21 15.75-15 20.75-9 21.25-3zM960 240q0-25.5-11-46.25t-29-35.5-41-22.5-47-7.75-47 7.75-41 22.5-29 35.5-11 46.25 11 46.25 29 35.5 41 22.5 47 7.75q16.5 0 33-3.75t31-11.25v334l-320-80v-415q0-25.5-11-46.25t-29-35.5-41-22.5-47-7.75-47 7.75-41 22.5-29 35.5-11 46.25 11 46.25 29 35.5 41 22.5 47 7.75q16.5 0 33-3.75t31-11.25v368l448 112v-513zM448 128q10 0 21.25 3t20.75 9 15.75 15 6.25 21-6.25 21-15.75 15-20.75 9-21.25 3-21.25-3-20.75-9-15.75-15-6.25-21 6.25-21 15.75-15 20.75-9 21.25-3zM832 192q10 0 21.25 3t20.75 9 15.75 15 6.25 21-6.25 21-15.75 15-20.75 9-21.25 3-21.25-3-20.75-9-15.75-15-6.25-21 6.25-21 15.75-15 20.75-9 21.25-3z" />
<glyph unicode="&#xe900;" d="M512 1024c-282.77 0-512-229.23-512-512s229.23-512 512-512c282.77 0 512 229.23 512 512v0c0 282.77-229.23 512-512 512v0zM512 188c-178.94 0-324 145.060-324 324s145.060 324 324 324c178.94 0 324-145.060 324-324v0c0-178.94-145.060-324-324-324v0z" />
<glyph unicode="&#xe901;" d="M512 920.84c-225.796 0-408.84-183.044-408.84-408.84s183.044-408.84 408.84-408.84c225.796 0 408.84 183.044 408.84 408.84v0c0 225.796-183.044 408.84-408.84 408.84v0zM512 188c-178.94 0-324 145.060-324 324s145.060 324 324 324c178.94 0 324-145.060 324-324v0c0-178.94-145.060-324-324-324v0z" />
<glyph unicode="&#xe902;" glyph-name="Windows_logo" d="M1.578 879.018l417.187 56.816 0.183-402.411-416.988-2.375zM418.566 487.058l0.323-402.762-416.988 57.33-0.023 348.133zM469.139 943.267l553.155 80.733v-485.457l-553.155-4.391zM1022.423 483.271l-0.13-483.271-553.155 78.071-0.775 406.105z" />
<glyph unicode="&#xe903;" glyph-name="apple" d="M952.718 301.591c0 1.795 0 1.795 0 3.591v17.951l-8.975 5.386c-80.783 43.085-118.482 104.12-118.482 186.7 0 70.013 30.518 129.254 86.169 168.747l21.542 10.77-14.362 17.951c-35.904 44.879-96.94 105.915-192.084 105.915-18.129 0-34.991-4.453-51.716-11.064 39.371 42.615 60.692 96.706 60.692 158.269 0 10.77 0 21.542-1.795 34.109v5.386l-1.795 5.386c-1.795 3.591-3.591 8.975-8.975 10.77-5.386 1.795-8.975 3.591-14.362 1.795-95.145-26.928-195.676-102.326-195.676-235.169 0-7.658 0.010-15.329 0.823-23.801-15.653 4.087-29.377 11.733-43.908 20.209-25.132 14.362-52.060 30.518-93.35 30.518-181.314 0-306.977-165.158-306.977-312.363 0-80.783 25.132-220.808 96.94-350.062 55.652-100.531 120.277-152.591 188.495-152.591 25.132 0 50.265 8.975 78.989 17.951 28.723 12.567 61.036 23.337 93.35 23.337 26.928 0 53.855-10.77 80.783-19.748 26.928-8.975 55.652-19.748 84.375-19.748 141.819 0 262.098 177.723 262.098 289.026-0.002 3.595-1.799 7.187-1.799 10.776zM697.803 981.967c1.795-7.181 1.795-12.567 0-17.951 0-122.073-91.555-175.928-149-197.471-1.795 8.975-1.795 16.156-1.795 21.542-0.002 104.12 75.395 166.953 150.794 193.879zM918.611 298.001c0-1.795 0-3.589 0-5.386 0-134.638-140.024-253.122-226.194-253.122-23.337 0-48.471 8.975-73.603 17.951-30.518 10.772-61.036 21.542-93.35 21.542-39.493 0-75.397-12.567-105.915-25.132-23.337-8.975-46.674-17.951-64.627-17.951-68.216 0-123.868 71.808-156.181 132.843-68.216 123.868-93.35 256.711-93.35 333.905 0 163.361 143.616 276.459 271.073 276.459 30.518 0 52.060-12.567 77.194-26.928 25.132-14.362 50.265-28.723 86.169-28.723 46.674 0 84.375 17.951 116.687 34.109 26.928 12.567 48.471 23.337 71.808 23.337 70.013 0 118.482-37.699 152.591-77.194-57.446-44.879-89.759-111.301-89.759-188.495 0-93.35 41.29-163.361 127.457-211.832-0.002-1.795-0.002-3.589-0.002-5.384z" />
<glyph unicode="&#xe904;" glyph-name="windows" d="M468.904 941.251v-415.462h551.65v498.21l-551.65-82.749zM986.075 560.268h-482.693v351.679l482.693 70.68v-422.359zM3.448 520.618h430.977v417.187l-430.977-63.785v-353.402zM37.927 844.713l362.020 53.442v-343.059h-362.020v289.617zM468.904 82.746l551.65-82.749v486.144h-551.65v-403.395zM503.382 451.663h482.693v-412.013l-482.693 72.405v339.608zM3.448 149.978l430.977-63.785v399.949h-430.977v-336.164zM37.927 451.663h362.020v-325.818l-362.020 53.442v272.377z" />
<glyph unicode="&#xe905;" glyph-name="google-play" d="M949.339 551.88l-209.992 121.484c-1.126 0.562-2.298 0.974-3.494 1.27l-203.028 116.742-449.487 230.818c-1.7 0.68-3.4 1.154-5.076 1.434-1.826 0.41-3.722 0.48-5.652 0.168-2.418-0.278-4.7-1.028-6.76-2.242-5.69-2.422-8.545-8.691-8.545-14.977v-989.22c0-6.942 3.472-12.149 8.677-15.619 1.736-1.736 5.206-1.736 8.677-1.736s5.206 0 8.677 1.736l449.487 249.909 197.562 114.554c0.096-0.002 0.184-0.012 0.282-0.012 3.472 0 5.206 1.736 8.677 5.206v0c1.514 0.506 2.86 1.328 4.038 2.336l205.956 119.148c10.413 5.206 17.355 17.355 17.355 29.504s-6.944 22.556-17.357 29.498zM92.016 966.66l477.011-445.79-477.011-461.112v906.902zM702.902 654.273l-60.546-61.522-47.135-47.739-209.044 194.299-207.222 193.407 336.515-170.846 187.431-107.599zM515.471 281.147l-333.477-183.927 413.23 399.049 106.711-108.079-186.463-107.043zM733.584 406.776l-112.412 113.854 113.054 114.504 197.76-114.492-198.402-113.866z" />
<glyph unicode="&#xe906;" glyph-name="dribbble" d="M556.374 672.426l6.826-13.654 13.654 5.12c95.574 39.254 172.374 88.746 223.574 148.48l13.654 13.654-13.654 11.946c-80.214 69.974-182.614 109.228-288.428 109.228-34.134 0-68.266-5.12-102.4-11.946l-27.306-6.826 18.774-20.48c1.706-1.708 76.798-90.454 155.306-235.522zM512 913.066c92.16 0 180.906-32.426 252.586-90.454-46.080-47.786-109.226-88.746-186.026-121.174-54.614 100.694-107.52 170.666-133.12 204.8 22.186 5.122 44.374 6.828 66.56 6.828zM109.226 581.974c35.84 0 204.8 1.706 378.88 52.906l20.48 5.12-10.24 18.774c-78.506 145.066-153.6 238.934-153.6 240.64l-8.534 10.24-11.946-5.12c-121.174-58.026-209.92-172.374-238.934-302.080l-3.414-20.48h20.482c1.706 0 3.414 0 6.826 0zM325.974 866.986c20.48-27.306 73.386-102.4 131.414-204.8-141.654-39.254-281.6-44.374-332.8-46.080 29.012 107.52 102.398 199.68 201.386 250.88zM558.080 494.934l17.066 6.826-8.534 17.066c-8.534 22.186-20.48 46.080-32.426 69.974l-6.826 13.654-13.654-5.12c-121.174-37.546-262.826-56.32-419.84-56.32h-17.066v-17.066c0-5.12 0-8.534 0-11.946 0-107.52 40.96-211.626 112.64-290.134l15.36-17.066 11.946 18.774c76.8 127.998 197.974 225.278 341.334 271.358zM201.386 261.12c-56.32 68.266-87.040 155.306-88.746 244.054 146.774 1.706 281.6 18.774 399.36 56.32 6.826-13.654 13.654-27.306 18.774-39.254-134.828-49.494-250.88-139.946-329.388-261.12zM849.92 785.066l-15.36 15.36-13.654-18.774c-8.534-11.946-69.974-90.454-221.866-155.306l-17.066-6.826 8.534-15.36c13.654-25.6 25.6-52.906 35.84-78.506l5.12-11.946 13.654 3.414c92.16 15.36 189.44 10.24 279.894-15.36l22.186-6.826v22.184c-1.708 98.986-35.842 191.146-97.282 267.946zM750.934 559.786c-32.426 0-66.56-1.706-97.28-8.534-8.534 17.066-15.36 34.134-23.894 51.2 117.76 52.906 180.906 114.346 206.506 143.36 44.374-59.732 69.974-131.412 75.094-206.506-52.906 13.654-105.814 20.48-160.426 20.48zM599.040 448.854l-5.12 15.36-15.36-5.12c-141.654-44.374-261.12-139.946-334.506-269.654l-6.826-13.654 11.946-8.534c75.094-58.026 167.254-88.746 262.826-88.746 58.026 0 114.346 10.24 165.546 32.426l11.946 5.12-1.706 13.654c-13.652 100.694-44.372 208.214-88.746 319.148zM512 110.934c-83.626 0-162.134 25.6-230.4 73.386 66.56 110.934 168.96 194.56 291.84 235.52 37.546-98.986 64.854-192.854 78.506-283.306-44.372-17.068-92.16-25.6-139.946-25.6zM512 1024c-281.6 0-512-230.4-512-512s230.4-512 512-512 512 230.4 512 512-230.4 512-512 512zM512 34.134c-262.826 0-477.866 215.040-477.866 477.866s215.040 477.866 477.866 477.866 477.866-215.040 477.866-477.866-215.040-477.866-477.866-477.866zM667.306 479.574l-20.48-3.414 6.826-20.48c35.84-98.986 59.734-196.266 73.386-293.546l3.414-27.306 23.894 15.36c97.28 66.56 165.546 170.666 186.026 286.72l1.706 15.36-13.654 5.12c-83.624 27.306-174.078 34.132-261.118 22.186zM756.054 194.56c-11.946 83.626-34.134 168.96-63.146 252.586 71.68 6.826 143.36 1.706 209.92-18.774-18.774-92.158-71.682-175.786-146.774-233.812z" />
<glyph unicode="&#xe907;" glyph-name="skype" d="M993.28 423.254c5.12 29.014 8.534 58.026 8.534 87.040 0 267.946-218.454 486.4-486.4 486.4-29.014 0-58.026-3.414-87.040-8.534-42.668 23.894-90.454 35.84-139.948 35.84-158.72 0-288.426-129.706-288.426-288.426 0-47.786 11.946-97.28 35.84-139.946-5.12-29.014-8.534-58.026-8.534-87.040 0-267.946 218.454-486.4 486.4-486.4 29.014 0 58.026 3.414 87.040 8.534 37.546-20.48 83.626-30.72 139.946-30.72 158.722-0.002 283.308 124.584 283.308 283.304 0 56.32-10.24 102.4-30.72 139.948zM740.694 34.134c-52.906 0-93.866 10.24-128 29.014l-5.12 3.414-6.826-1.706c-29.014-5.12-58.026-8.534-87.040-8.534-249.174 0-452.266 203.094-452.266 452.266 0 29.014 3.414 58.026 8.534 87.040l1.706 6.826-3.414 5.12c-22.186 39.254-34.134 83.626-34.134 128 0 139.946 114.346 254.294 254.294 254.294 44.374 0 88.746-11.946 128-34.134l5.12-3.414 6.826 1.706c29.014 5.12 58.026 8.534 87.040 8.534 249.174 0 452.266-203.094 452.266-452.266 0-29.014-3.414-58.026-8.534-87.040l-1.706-6.826 3.414-5.12c18.774-34.134 29.014-75.094 29.014-128-0.002-139.948-109.228-249.174-249.174-249.174zM556.374 593.92c-128 25.6-146.774 58.026-148.48 66.56-3.414 11.946 5.12 22.186 13.654 29.014 22.186 18.774 75.094 34.134 121.174 25.6 17.066-3.414 40.96-11.946 52.906-32.426 29.014-56.32 59.734-100.694 122.88-85.334 20.48 5.12 35.84 18.774 46.080 39.254 11.946 27.306 11.946 64.854-3.414 93.866-17.066 32.426-90.454 116.054-233.814 116.054-136.534 0-293.546-49.494-293.546-189.44 0-110.934 97.28-189.44 266.24-213.334 85.334-11.946 112.64-39.254 121.174-54.614 5.12-10.24 5.12-20.48 1.706-30.72-13.654-32.426-59.734-63.146-131.414-56.32-81.92 8.534-109.226 81.92-114.346 97.28-13.654 42.666-59.734 49.494-83.626 47.786-11.946-1.706-39.254-10.24-56.32-35.84-10.24-15.36-20.48-44.374-5.12-88.746 18.774-58.026 81.92-153.6 291.84-153.6 175.786 0 281.6 110.934 283.306 213.334 0 112.64-76.8 177.492-250.88 211.626zM522.24 203.094c-139.946 0-232.106 46.080-259.414 129.706-8.534 25.6-8.534 46.080 1.706 59.734s25.6 20.48 32.426 20.48c0 0 1.706 0 5.12 0 10.24 0 35.84-1.706 39.254-22.186 6.826-18.774 40.96-110.934 143.36-121.174 90.454-8.534 148.48 34.134 167.254 78.506 8.534 20.48 6.826 42.666-3.414 61.44-13.654 25.6-51.2 58.026-145.066 71.68-88.746 13.654-237.226 52.906-237.226 179.2 0 114.346 139.946 155.306 259.414 155.306 126.294 0 189.44-69.974 203.094-97.28 8.534-18.774 10.24-46.080 1.706-64.854-5.12-11.946-13.654-18.774-23.894-20.48-30.72-6.826-49.494 0-85.334 68.266-13.654 25.6-40.96 42.666-76.8 49.494-52.906 8.534-117.76-5.12-150.186-34.134-20.48-18.774-29.014-40.96-23.894-63.146 11.946-40.96 68.266-69.974 175.786-90.454 196.266-39.254 223.574-110.934 223.574-177.494 0-88.744-92.16-182.61-247.466-182.61z" />
<glyph unicode="&#xe908;" glyph-name="linkedin" d="M138.24 1015.466c-37.546 0-71.68-13.654-97.28-39.254-27.306-27.306-40.96-61.438-40.96-97.278 0-37.546 15.36-71.68 40.96-97.28s61.44-40.96 95.574-39.254c0 0 1.706 0 3.414 0 34.134 0 66.56 13.654 92.16 39.254s40.96 59.734 40.96 97.28c1.706 35.84-13.654 69.974-39.254 95.574-25.6 27.306-59.734 40.958-95.574 40.958zM208.214 805.546c-18.774-18.774-44.374-30.72-71.68-29.014-25.6 0-52.906 10.24-71.68 29.014-20.48 18.774-30.72 46.080-30.72 73.386s10.24 52.906 30.72 73.386c18.774 18.774 44.374 29.014 73.386 29.014 25.6 0 51.2-10.24 69.974-29.014 20.48-20.48 30.72-46.080 30.72-73.386s-10.24-54.612-30.72-73.386zM204.8 708.266h-138.24c-27.306 0-49.494-22.186-49.494-51.2v-597.334c0-27.306 23.894-51.2 51.2-51.2h136.534c27.306 0 51.2 23.894 51.2 49.494v599.040c0 27.308-23.894 51.2-51.2 51.2zM221.866 58.026c0-8.534-8.534-15.36-17.066-15.36h-136.534c-8.534 0-17.066 8.534-17.066 17.066v597.334c0 8.534 6.826 17.066 15.36 17.066h138.24c8.534 0 17.066-8.534 17.066-17.066v-599.040zM785.066 725.334h-35.84c-66.56 0-129.706-29.014-170.666-75.094v23.894c0 17.066-17.066 34.134-34.134 34.134h-170.666c-15.36 0-34.134-13.654-34.134-32.426v-636.586c0-18.774 18.774-30.72 34.134-30.72h187.734c15.36 0 34.134 11.946 34.134 30.72v368.64c0 56.32 40.96 100.694 93.866 100.694 27.306 0 52.906-10.24 71.68-29.014 17.066-15.36 23.894-39.254 23.894-69.974v-366.934c0-17.066 17.066-34.134 34.134-34.134h170.666c17.066 0 34.134 17.066 34.134 34.134v440.32c-0.002 136.532-104.108 242.346-238.936 242.346zM989.866 44.374l-1.706-1.706h-167.254l-1.706 366.932c0 40.96-10.24 71.68-32.426 93.866-25.6 25.6-59.734 39.254-95.574 39.254-71.68-1.706-128-59.734-128-134.826v-365.226h-187.734v631.466h168.96l1.706-1.706v-107.52l47.786 47.786c34.134 47.786 93.866 78.506 157.014 78.506h35.84c114.346 0 203.094-92.16 203.094-208.214v-438.612z" />
<glyph unicode="&#xe909;" glyph-name="instagram" d="M732.16 1024h-440.32c-160.426 0-291.84-131.414-291.84-291.84v-440.32c0-160.426 131.414-291.84 291.84-291.84h440.32c160.426 0 291.84 131.414 291.84 291.84v440.32c0 160.426-131.414 291.84-291.84 291.84zM989.866 291.84c0-141.654-116.054-257.706-257.706-257.706h-440.32c-141.654 0-257.706 116.054-257.706 257.706v440.32c0 141.654 116.054 257.706 257.706 257.706h440.32c141.654 0 257.706-116.054 257.706-257.706v-440.32zM732.16 921.6h-440.32c-104.106 0-189.44-85.334-189.44-189.44v-440.32c0-104.106 85.334-189.44 189.44-189.44h440.32c104.106 0 189.44 85.334 189.44 189.44v440.32c0 104.106-85.334 189.44-189.44 189.44zM887.466 291.84c0-85.334-69.974-155.306-155.306-155.306h-440.32c-85.334 0-155.306 69.974-155.306 155.306v440.32c0 85.334 69.974 155.306 155.306 155.306h440.32c85.334 0 155.306-69.974 155.306-155.306v-440.32zM512 785.066c-150.186 0-273.066-122.88-273.066-273.066s122.88-273.066 273.066-273.066 273.066 122.88 273.066 273.066-122.88 273.066-273.066 273.066zM512 273.066c-131.414 0-238.934 107.52-238.934 238.934s107.52 238.934 238.934 238.934 238.934-107.52 238.934-238.934-107.52-238.934-238.934-238.934zM512 699.734c-104.106 0-187.734-83.626-187.734-187.734 0-104.106 83.626-187.734 187.734-187.734s187.734 83.626 187.734 187.734-83.628 187.734-187.734 187.734zM512 358.4c-85.334 0-153.6 68.266-153.6 153.6s68.266 153.6 153.6 153.6c85.334 0 153.6-68.266 153.6-153.6s-68.266-153.6-153.6-153.6zM785.066 836.266c-29.014 0-51.2-22.186-51.2-51.2s22.186-51.2 51.2-51.2c29.014 0 51.2 22.186 51.2 51.2s-22.186 51.2-51.2 51.2z" />
<glyph unicode="&#xe90a;" glyph-name="snapchat" d="M1000.148 271.759c-129.49 22.149-187.422 151.641-194.236 166.976v1.703c-6.815 13.631-8.52 23.854-5.111 32.372 6.815 15.334 35.78 25.557 54.523 30.669 5.111 1.703 10.223 3.408 13.631 5.111 35.78 15.334 54.523 34.077 54.523 56.226 0 17.038-13.631 34.077-34.077 40.892-6.815 3.408-15.334 5.111-23.854 5.111-5.111 0-13.631-1.703-22.149-5.111-17.038-6.815-30.669-11.926-40.892-11.926-3.408 0-6.815 0-10.223 1.703 1.703 5.111 1.703 10.223 1.703 17.038v3.408c3.408 69.858 10.223 156.753-13.631 207.868-69.858 153.345-214.682 165.271-257.277 165.271h-20.446c-42.595 0-187.422-11.926-255.574-165.271-23.854-51.115-18.743-138.010-13.631-207.868 1.703-6.815 1.703-13.631 1.703-20.446-3.408 0-8.52-1.703-13.631-1.703-13.631 0-27.261 3.408-44.3 11.926-23.854 10.223-69.858-5.111-74.969-35.78-3.408-17.038 3.408-40.892 54.523-61.338 3.408-1.703 8.52-3.408 15.334-5.111 17.038-5.111 46.003-15.334 52.818-30.669 3.408-6.815 1.703-18.743-5.111-32.372-3.408-5.111-63.041-143.122-197.645-165.271-13.627-3.408-22.147-15.334-22.147-28.966 0-5.111 1.703-8.52 3.408-11.926 10.223-27.261 54.523-44.3 134.602-57.929 1.703-5.111 3.408-15.334 5.111-20.446 1.703-6.815 3.408-15.334 5.111-23.854s10.223-22.149 30.669-22.149c6.815 0 15.334 1.703 23.854 3.408 13.631 3.408 30.669 6.815 52.818 6.815 13.631 0 25.557-1.703 39.189-5.111 23.854-3.408 46.003-18.743 69.858-35.78 35.78-25.557 68.152-44.3 134.602-44.3 1.703 0 3.408 0 5.111 0s5.111 0 6.815 0c57.929 0 109.044 15.334 153.345 44.3 23.854 15.334 46.003 32.372 69.858 35.78 11.926 1.703 25.557 3.408 37.484 3.408 20.446 0 37.484-1.703 52.818-5.111 10.223-1.703 18.743-3.408 25.557-3.408 13.631 0 25.557 8.52 28.966 22.149 1.703 8.52 3.408 15.334 5.111 23.854 1.703 3.408 3.408 13.631 5.111 18.743 80.081 11.926 119.267 30.669 131.195 56.226 1.703 3.408 3.408 8.52 3.408 11.926-0.002 13.629-10.225 27.261-23.854 28.964zM879.175 208.718c-20.446-1.703-23.854-22.149-28.966-44.3-1.703-5.111-3.408-11.926-5.111-18.743-3.408 0-8.52 0-17.038 1.703-17.038 3.408-35.78 6.815-59.635 6.815-13.631 0-27.261-1.703-42.595-3.408-30.669-5.111-57.929-23.854-83.487-42.595-37.486-27.259-80.081-39.185-131.195-39.185-1.703 0-3.408 0-6.815 0-0.461 0-0.889 0-1.278 0-0.146 0-0.292 0-0.425 0-56.226 0-83.487 17.038-115.861 39.189-25.557 18.743-51.115 37.484-83.487 42.595-13.631 1.703-28.966 3.408-42.595 3.408-25.557 0-46.003-3.408-59.635-6.815-6.815-1.703-11.926-3.408-17.038-3.408-1.703 6.815-3.408 13.631-5.111 20.446-5.111 22.149-8.52 42.595-28.966 46.003-74.969 10.223-100.527 25.557-109.044 32.372 139.713 28.966 204.459 165.271 212.979 184.013 10.223 22.149 11.926 42.595 5.111 59.635-13.631 30.669-51.115 42.595-74.969 49.412-5.111 0-8.52 1.703-11.926 3.408-28.968 11.924-34.079 22.147-34.079 23.85 0 5.111 11.926 11.926 22.149 11.926 3.408 0 5.111 0 5.111 0 20.446-10.223 40.892-15.334 57.929-15.334 25.557 0 39.189 11.926 42.595 15.334s5.111 6.815 5.111 11.926c0 10.223-1.703 20.446-1.703 30.669-5.111 66.449-10.223 148.233 10.223 192.533 59.635 134.602 187.422 144.825 224.905 144.825h18.741c37.484 0 165.271-10.223 226.608-141.418 18.743-44.3 13.631-126.084 10.223-192.533v-3.408c0-10.223-1.703-18.743-1.703-27.261 0-5.111 1.703-10.223 5.111-13.631s15.334-13.631 40.892-15.334c17.038 1.703 34.077 6.815 54.523 15.334 3.408 1.703 11.926 1.703 18.743-1.703 8.52-3.408 11.926-8.52 11.926-10.223 0-3.408-6.815-13.631-34.077-23.854-3.408-1.703-8.52-3.408-13.631-5.111-22.149-6.815-59.635-18.743-73.264-49.412-8.52-17.038-5.111-37.484 5.111-59.635 6.815-17.038 69.858-156.753 211.274-185.717-8.516-6.811-32.37-20.442-105.634-32.368z" />
<glyph unicode="&#xe90b;" glyph-name="youtube" d="M1013.743 729.109c0 3.42-10.257 78.637-42.737 114.537-39.32 42.737-82.057 47.866-104.28 49.577h-6.837c-138.471 10.257-345.321 11.966-348.741 11.966-1.709 0-210.27-1.709-347.032-15.386h-5.129c-23.936-1.709-66.673-6.837-104.282-49.575-34.191-35.9-44.448-112.828-44.448-116.248 0 0-10.257-87.185-10.257-174.371v-80.348c0-85.476 10.257-172.662 10.257-174.371 0-3.42 10.257-78.637 42.737-114.537 35.9-41.028 78.637-46.157 105.991-49.577 5.129 0 8.548 0 13.677-1.709 78.637-6.837 328.227-10.257 338.484-10.257 1.709 0 210.27 0 348.741 15.386h5.129c23.934 1.709 66.671 6.837 104.28 49.577 34.191 35.9 44.448 112.828 44.448 116.248 0 0 10.257 87.185 10.257 174.371v80.346c0 85.476-10.257 172.662-10.257 174.371zM989.809 470.973c0-85.476-10.257-170.951-10.257-170.951-3.42-18.805-13.677-73.508-35.9-97.442-29.062-34.191-63.251-37.609-82.057-39.32h-5.129c-136.762-10.257-343.612-10.257-345.321-10.257s-258.136 3.42-333.355 11.966c-5.129 0-10.257 1.709-15.386 1.709-23.934 1.709-58.123 6.837-85.476 37.609-20.514 22.223-32.48 76.928-34.191 95.733 0 1.709-10.257 87.185-10.257 170.951v80.348c0 85.476 10.257 170.951 10.257 170.951 1.709 18.805 13.677 73.508 34.191 97.442 30.771 34.191 63.251 37.611 83.766 39.32h5.129c136.762 10.257 343.612 11.966 345.321 11.966s208.561-1.709 345.321-11.966h6.837c18.805-1.709 52.994-5.129 82.057-39.32 20.514-23.934 30.771-78.637 34.191-97.442 1.709-3.42 10.257-88.894 10.257-170.951v-80.346zM724.834 510.29l-324.807 189.756c-5.129 3.42-11.966 3.42-17.094 0s-8.548-8.548-8.548-15.386v-370.964c0-6.837 3.42-11.966 8.548-15.386 3.42-1.709 5.129-1.709 8.548-1.709s5.129 0 8.548 1.709l324.807 181.208c5.129 3.42 8.548 8.548 8.548 15.386s-3.422 11.968-8.55 15.386zM408.575 342.759v312.841l273.522-160.694-273.522-152.147z" />
<glyph unicode="&#xe90c;" glyph-name="twitter" d="M1018.134 835.245c-5.213 5.213-13.904 6.952-20.858 5.213l-34.761-12.167c20.858 24.333 34.761 50.404 43.452 74.736 3.477 8.69 1.738 15.642-3.477 20.858-5.213 5.213-13.904 6.952-20.858 3.477-48.665-20.858-90.379-38.238-125.14-48.665 0-1.738-1.738 0-3.477 0-27.81 15.642-95.594 50.404-144.259 50.404-123.404-1.738-222.473-106.023-222.473-232.902v-6.952c-180.759 34.761-279.828 86.904-387.59 199.879l-17.377 17.381-10.429-20.858c-59.094-112.975-17.381-215.521 50.404-285.044-31.285 5.213-52.142 15.642-71.261 31.285-6.952 5.213-15.642 6.952-24.333 1.738-6.952-3.477-10.429-13.904-8.69-22.594 24.333-81.688 85.165-147.736 151.211-187.711-31.285 0-57.356 3.477-83.427 20.858-6.952 3.477-17.381 3.477-24.333-1.738s-10.429-13.904-6.952-22.594c31.285-88.642 92.117-135.569 189.45-147.736-50.404-29.548-116.45-53.881-218.996-55.619-10.429 0-19.119-6.952-22.594-15.642-3.477-10.429 0-19.119 6.952-26.071 62.571-50.404 201.615-79.952 373.684-79.952 305.9 0 556.182 272.877 556.182 608.324v5.213c38.238 19.119 69.523 55.619 85.165 106.023 1.736 6.954-0.002 15.644-5.215 20.858zM913.849 736.176l-10.429-3.477v-29.548c0-316.328-234.64-573.563-521.42-573.563-158.165 0-264.186 26.071-321.542 53.881 119.927 8.69 189.45 46.929 243.33 88.642l43.452 31.285h-52.142c-99.069 0-159.902 27.81-194.663 93.856 31.285-10.429 64.308-10.429 100.808-8.69 13.904 1.738 27.81 1.738 41.713 1.738l5.213 34.761c-66.046 19.119-144.259 78.213-182.498 158.163 34.761-15.642 72.998-19.119 107.759-19.119h53.881l-43.45 31.287c-36.5 26.071-144.259 118.188-92.117 250.282 111.236-109.498 217.259-159.902 408.446-194.663l20.858-3.477v48.665c0 107.759 83.427 196.402 187.711 198.14 39.975 1.738 106.023-34.761 125.14-45.19 10.429-5.213 20.858-6.952 31.285-3.477 26.071 8.69 57.356 20.858 92.117 34.761-15.642-26.071-36.5-50.404-64.308-73-6.952-5.213-8.69-15.642-5.213-24.333s13.904-12.167 22.594-8.69l67.785 22.594c-12.167-22.592-31.287-48.663-64.31-60.829z" />
<glyph unicode="&#xe90d;" glyph-name="facebook" d="M938.666 1024h-853.332c-47.788 0-85.334-37.546-85.334-85.334v-853.334c0-47.786 37.546-85.332 85.334-85.332h853.334c47.786 0 85.332 37.546 85.332 85.334v853.332c0 47.788-37.546 85.334-85.334 85.334zM512 34.134v341.332h-136.534v136.534h136.534v119.466c0 97.28 75.094 179.2 170.666 187.734h153.6v-136.534h-136.534c-29.014 0-51.2-22.186-51.2-51.2v-119.466h170.668v-136.534h-170.666v-341.334h-136.534zM989.866 85.334c0-29.014-22.186-51.2-51.2-51.2h-256v307.2h170.666v204.8h-170.666v85.334c0 10.24 6.826 17.066 17.066 17.066h170.668v204.8h-189.44c-114.346-10.24-203.094-107.52-203.094-221.866v-85.334h-136.534v-204.8h136.534v-307.2h-392.532c-29.014 0-51.2 22.186-51.2 51.2v853.332c0 29.014 22.186 51.2 51.2 51.2h853.334c29.014 0 51.2-22.186 51.2-51.2v-853.332z" />
<glyph unicode="&#xe90e;" glyph-name="twitter2" d="M840.103 728.302c-15.057-6.678-30.692-11.946-46.731-15.759 17.677 16.798 30.963 37.801 38.462 61.249v0c2.141 6.694-5.133 12.482-11.178 8.899v0c-22.313-13.239-46.351-23.165-71.446-29.518-1.453-0.368-2.957-0.555-4.466-0.555-4.572 0-9.011 1.7-12.509 4.779-26.699 23.528-61.036 36.489-96.68 36.489-15.424 0-30.998-2.405-46.29-7.144-47.382-14.696-83.939-53.778-95.408-101.997-4.305-18.084-5.47-36.19-3.462-53.804 0.23-2.023-0.73-3.438-1.315-4.097-1.034-1.161-2.507-1.825-4.028-1.825-0.167 0-0.344 0.009-0.52 0.026-103.71 9.635-197.236 59.601-263.341 140.688v0c-3.374 4.134-9.838 3.629-12.52-0.978v0c-12.943-22.207-19.787-47.612-19.787-73.457 0-39.613 15.918-76.945 43.56-104.159-11.624 2.757-22.876 7.096-33.326 12.905v0c-5.057 2.81-11.279-0.802-11.351-6.583v0c-0.725-58.85 33.729-111.211 85.344-134.788-1.039-0.026-2.079-0.037-3.121-0.037-8.183 0-16.464 0.788-24.621 2.351v0c-5.696 1.085-10.476-4.314-8.712-9.838v0c16.752-52.299 61.786-90.854 115.674-99.605-44.722-30.025-96.809-45.862-151.018-45.862l-16.902 0.009c-5.206 0-9.61-3.391-10.936-8.437-1.309-4.967 1.101-10.209 5.541-12.79 61.087-35.548 130.762-54.34 201.524-54.34 61.942 0 119.882 12.29 172.22 36.532 47.977 22.225 90.369 53.989 126.010 94.422 33.2 37.661 59.157 81.138 77.156 129.223 17.156 45.832 26.224 94.739 26.224 141.431v2.226c-0.002 7.496 3.391 14.551 9.306 19.353 22.451 18.225 41.996 39.684 58.099 63.767v0c4.255 6.36-2.456 14.332-9.452 11.231v0z" />
<glyph unicode="&#xe90f;" glyph-name="dribbble2" d="M512 896c-212.084 0-384-171.916-384-384s171.916-384 384-384c211.98 0.252 383.76 172.020 384 384 0 212.084-171.916 384-384 384zM863.66 496.848c-74.412 23.64-161.564 26.46-248.172 7.2-15.976 40.095-30.969 72.208-47.452 103.409l2.812-5.837c84.676 31.276 157.212 77.716 202.812 145.5 56.049-61.956 90.348-144.513 90.348-235.073 0-0.016 0-0.036 0-0.056v0.004c0-5.084-0.132-10.124-0.348-15.152zM750.68 770.48c-42-65.892-112.14-110.684-195-140.64-46.097 81.732-98.58 152.292-158.717 215.502l0.42-0.444c34.096 12.109 73.428 19.113 114.39 19.113 92.335 0 176.364-35.559 239.133-93.732l-0.228 0.206zM365.18 831.98c60.409-61.932 113.279-131.675 156.843-207.444l2.669-5.031c-112.952-34.788-244.5-45.196-359.248-45.512 21.256 115.4 96.299 209.652 197.627 257.104l2.161 0.908zM159.996 512c0 10.112 0.448 20.1 1.288 30 120.272 0 259.276 11.1 378.9 49.124 13.526-24.813 28.286-56.076 41.482-88.14l2.502-6.869c-121.5-34.636-238.5-113.312-314.268-239.608-67.743 64.129-109.908 154.692-109.908 255.097 0 0.139 0 0.277 0 0.42v-0.021zM294.5 235.28c71.716 122.684 184.5 198.568 301.112 231.132 30.696-80.748 52.15-174.314 60.144-271.693l0.248-3.719c0-0.108 0-0.196 0-0.284-42.292-19.393-91.746-30.7-143.844-30.7-82.488 0-158.357 28.346-218.392 75.828l0.737-0.564zM686.916 206.436c-9.3 98.654-30.531 189.441-62.412 275.034l2.412-7.39c81.252 17.28 162.72 13.8 231.884-9.252 0.544-0.159 1.219-0.306 1.908-0.41l0.084-0.012c-15.559-110.94-80.874-203.974-172.271-257.068l-1.685-0.9z" />
<glyph unicode="&#xe910;" glyph-name="lastfm" d="M759.24 543.24l-52 11.38c-35.74 8.12-46.3 22.72-46.3 47.12 0 27.6 22 43.84 57.68 43.84 39 0 60-14.6 63.34-49.56l81.18 9.76c-6.5 73.1-56.82 103.12-139.7 103.12-73.040 0-144.52-27.6-144.52-116.12 0-55.22 26.82-90.12 94.2-106.38l55.22-12.96c41.4-9.78 55.2-26.82 55.2-50.34 0-30-29.18-42.24-84.44-42.24-82 0-116.14 43.040-135.6 102.34l-26.82 81.18c-34 105.58-88.48 144.56-196.48 144.56-119.4 0-182.72-75.56-182.72-203.82 0-123.48 63.32-190 177-190 91.78 0 135.66 43.040 135.66 43.040l-26 70.64s-42.14-47.16-105.56-47.16c-56 0-95.82 48.76-95.82 126.7 0 99.9 50.32 135.64 100 135.64 71.46 0 94.2-46.32 113.66-105.58l26-81.24c26-78.76 74.72-142.1 215.22-142.1 100.7 0 168.92 30.86 168.92 112-0.1 65.84-37.46 99.96-107.32 116.18z" />
<glyph unicode="&#xe911;" glyph-name="linkedin2" d="M674.721 639.945c-1.666 0.069-3.622 0.108-5.588 0.108-53.237 0-99.789-28.624-125.102-71.319l-0.368-0.673h-1.817v60.728h-133.658v-445.86h138.325v220.594c0 58.134 11.159 114.45 83.049 114.45s72.148-66.438 72.148-118.082v-216.965h138.585v244.729c0.779 119.899-25.173 212.29-165.576 212.29zM183.185 628.788h138.585v-445.86h-138.585v445.86zM252.478 849.38c-44.428-0.007-80.441-36.023-80.441-80.452 0-44.436 36.022-80.452 80.452-80.452s80.452 36.022 80.452 80.452c0 0.456-0.004 0.911-0.008 1.362l0.001-0.069c-0.586 43.841-36.262 79.15-80.186 79.15-0.096 0-0.187 0-0.279-0.001h0.014z" />
<glyph unicode="&#xe91b;" glyph-name="radiation" d="M512.013 600.266c33.082 0 59.926-26.846 59.926-59.926s-26.846-59.926-59.926-59.926c-33.132 0-59.926 26.846-59.926 59.926s26.796 59.926 59.926 59.926zM568.487 437.338l123.614-219.016c-53.176-30.092-114.647-47.252-180.088-47.252-66.754 0-129.309 17.828-183.23 49.028l125.752 217.806c16.9-9.79 36.534-15.406 57.48-15.406 20.508-0.002 39.778 5.382 56.474 14.838zM878.345 537.428h-251.426c0 42.124-22.646 78.94-56.5 98.932l127.864 216.568c107.796-63.763 180.062-181.192 180.062-315.5zM325.717 852.93l127.864-216.568c-33.828-19.992-56.5-56.808-56.5-98.932h-251.426c0 134.304 72.292 251.734 180.062 315.5z" />
<glyph unicode="&#xe91c;" glyph-name="icsun" d="M512 891.871c-209.796 0-379.871-170.075-379.871-379.871s170.075-379.871 379.871-379.871 379.871 170.075 379.871 379.871c-0.237 209.699-170.172 379.634-379.871 379.871zM512 165.161c-191.554 0-346.839 155.285-346.839 346.839s155.285 346.839 346.839 346.839 346.839-155.285 346.839-346.839c-0.209-191.467-155.371-346.63-346.839-346.839zM512 908.387c9.121 0 16.516 7.395 16.516 16.516v82.581c0 9.121-7.395 16.516-16.516 16.516s-16.516-7.395-16.516-16.516v-82.581c0-9.121 7.395-16.516 16.516-16.516zM512 115.613c-9.121 0-16.516-7.395-16.516-16.516v-82.581c0-9.121 7.395-16.516 16.516-16.516s16.516 7.395 16.516 16.516v82.581c0 9.121-7.395 16.516-16.516 16.516zM1007.484 528.516h-82.581c-9.121 0-16.516-7.395-16.516-16.516s7.395-16.516 16.516-16.516h82.581c9.121 0 16.516 7.395 16.516 16.516s-7.395 16.516-16.516 16.516zM99.097 528.516h-82.581c-9.121 0-16.516-7.395-16.516-16.516s7.395-16.516 16.516-16.516h82.581c9.121 0 16.516 7.395 16.516 16.516s-7.395 16.516-16.516 16.516zM803.972 787.456c4.381 0 8.58 1.742 11.677 4.839l58.385 58.385c6.561 6.336 6.743 16.793 0.405 23.354s-16.793 6.743-23.354 0.405c-0.138-0.132-0.273-0.268-0.405-0.405l-58.385-58.385c-6.45-6.452-6.447-16.908 0.004-23.358 3.097-3.095 7.294-4.835 11.673-4.835zM208.351 231.705l-58.385-58.385c-6.561-6.338-6.743-16.793-0.405-23.354s16.793-6.743 23.354-0.405c0.138 0.132 0.273 0.268 0.405 0.405l58.385 58.385c6.338 6.561 6.156 17.016-0.405 23.354-6.402 6.181-16.549 6.181-22.949 0zM815.649 231.705c-6.561 6.338-17.016 6.156-23.354-0.405-6.183-6.4-6.183-16.549 0-22.949l58.385-58.385c6.561-6.338 17.016-6.156 23.354 0.405 6.183 6.4 6.183 16.549 0 22.949l-58.385 58.385zM149.966 850.68l58.385-58.385c6.561-6.336 17.018-6.154 23.354 0.407 6.181 6.4 6.181 16.547 0 22.947l-58.385 58.385c-6.336 6.561-16.793 6.743-23.354 0.407s-6.743-16.793-0.407-23.354c0.134-0.138 0.268-0.275 0.407-0.407z" />
<glyph unicode="&#xe91d;" glyph-name="iccloudyday" d="M1004.756 402.812c-31.083 75.736-96.499 132.047-176.017 151.513h0.066c-27.701 133.285-157.867 219.162-291.302 192.181-55.956 114.779-194.363 162.463-309.139 106.507-114.779-55.956-162.463-194.363-106.507-309.139 4.304-8.829 9.166-17.373 14.558-25.583-122.101-61.329-171.368-210.029-110.039-332.13 35.482-70.643 102.587-120.076 180.573-133.021 3.255-2.267 7.116-3.503 11.081-3.551h549.937c33.31-0.111 66.312 6.371 97.106 19.074 130.843 53.701 193.382 203.303 139.683 334.149zM132.154 644.118c0.095 109.449 88.896 198.099 198.347 198.004 73.011-0.062 140.075-40.265 174.537-104.631-91.363-31.836-155.9-113.86-165.344-210.149-55.029 22.088-116.187 23.535-172.198 4.079-23.071 33.046-35.409 72.392-35.341 112.696zM986.755 262.195c-14.558-73.445-64.991-134.687-134.283-163.059-26.803-11.026-55.524-16.638-84.505-16.515h-520.211c-10.154 0.010-20.296 0.723-30.354 2.13h-0.182c-117.355 16.934-198.762 125.796-181.828 243.151s125.796 198.762 243.151 181.828c24.056-3.47 47.345-11.001 68.88-22.27 8.074-4.242 18.059-1.133 22.299 6.94 1.247 2.372 1.895 5.012 1.893 7.692v1.651c0.045 118.571 96.204 214.653 214.773 214.608 105.297-0.041 195.025-76.442 211.85-180.389 1.090-6.821 6.307-12.241 13.080-13.592 120.842-23.952 199.387-141.332 175.437-262.176zM330.33 891.838c9.12 0 16.515 7.394 16.515 16.515v49.544c0 9.12-7.394 16.515-16.515 16.515s-16.515-7.394-16.515-16.515v-49.544c0-9.122 7.392-16.515 16.515-16.515zM16.552 627.603h49.544c9.12 0 16.515 7.394 16.515 16.515s-7.394 16.515-16.515 16.515h-49.544c-9.12 0-16.515-7.394-16.515-16.515s7.392-16.515 16.515-16.515zM131.807 819.272c6.453-6.453 16.915-6.453 23.368 0s6.453 16.915 0 23.368l-35.044 35.028c-6.56 6.335-17.016 6.154-23.352-0.407-6.181-6.399-6.181-16.546 0-22.945l35.028-35.044zM517.16 814.433v0c4.385-0.004 8.592 1.738 11.692 4.839l35.028 35.044c6.337 6.56 6.156 17.014-0.405 23.352-6.399 6.183-16.548 6.183-22.947 0l-35.044-35.028c-6.457-6.441-6.472-16.899-0.029-23.356 3.101-3.109 7.312-4.855 11.705-4.851z" />
<glyph unicode="&#xe91e;" glyph-name="iccloudynight" d="M1004.757 452.36c-31.082 75.735-96.497 132.044-176.014 151.51h0.066c-27.701 133.283-157.864 219.157-291.296 192.177-38.852 78.924-119.204 128.884-207.172 128.812-2.312 0-4.806 0-7.085-0.231h-0.264c-1.131-0.213-2.238-0.539-3.303-0.974-1.032-0.242-2.040-0.584-3.006-1.024h-0.264c-0.64-0.5-1.237-1.053-1.784-1.651-1.034-0.712-1.982-1.544-2.824-2.477-0.611-0.888-1.131-1.833-1.552-2.824-0.539-0.873-0.993-1.796-1.354-2.758-0.293-1.261-0.436-2.554-0.429-3.848-0.132-0.753-0.215-1.515-0.248-2.279v-0.248c0.208-1.131 0.528-2.238 0.958-3.303 0.246-1.024 0.582-2.025 1.007-2.989 0-0.099 0-0.198 0.099-0.281 40.904-71.168 16.37-162.020-54.799-202.924-40.435-23.24-89.437-26.152-132.341-7.865-0.347 0.149-0.71 0.099-1.057 0.215-0.745 0.219-1.507 0.38-2.279 0.479-1.28 0.318-2.595 0.485-3.914 0.495-0.248 0-0.479 0.099-0.743 0.083-0.743-0.155-1.472-0.37-2.18-0.644-4.382-0.784-8.162-3.536-10.255-7.464-0.467-0.57-0.886-1.179-1.255-1.817-0.116-0.248 0-0.512-0.165-0.76-0.343-1.073-0.57-2.182-0.677-3.303-0.223-1.086-0.341-2.192-0.347-3.303 0-0.264-0.116-0.495-0.099-0.776 3.404-37.322 15.876-73.247 36.331-104.651-122.173-61.344-171.484-210.113-110.14-332.286 36.389-72.473 105.97-122.526 186.254-133.978 11.647-1.585 23.388-2.364 35.142-2.329h520.2c33.309-0.109 66.311 6.372 97.104 19.074 130.843 53.698 193.38 203.299 139.682 334.142zM357.615 779.754c9.5 36.728 7.215 75.512-6.531 110.869 65.357-6.783 123.069-45.61 153.979-103.594-91.374-31.823-155.918-113.85-165.358-210.144-29.249 11.661-60.446 17.662-91.935 17.687-27.341-0.045-54.483-4.651-80.309-13.624-14.44 20.818-24.74 44.221-30.337 68.931 96.751-25.021 195.467 33.128 220.491 129.877zM986.756 311.734c-14.561-73.441-64.994-134.678-134.284-163.048-26.803-11.025-55.523-16.638-84.504-16.514h-520.2c-10.216 0.008-20.418 0.727-30.535 2.147-117.351 16.933-198.756 125.794-181.822 243.146s125.794 198.758 243.146 181.824c24.055-3.47 47.344-11.001 68.879-22.27 8.073-4.242 18.058-1.133 22.298 6.94 1.243 2.368 1.893 5 1.893 7.675v1.651c0.045 118.569 96.202 214.649 214.768 214.603 105.295-0.041 195.021-76.441 211.845-180.386 1.092-6.825 6.317-12.247 13.096-13.591 120.839-23.958 199.377-141.34 175.419-262.179z" />
<glyph unicode="&#xe91f;" glyph-name="icmoon1" d="M512 1024c-282.771 0-512-229.229-512-512s229.229-512 512-512c282.634 0.328 511.672 229.366 512 512 0 282.771-229.229 512-512 512zM512 33.032c-264.526 0-478.968 214.441-478.968 478.968s214.441 478.968 478.968 478.968c264.407-0.291 478.677-214.561 478.968-478.968 0-264.526-214.441-478.968-478.968-478.968z" />
<glyph unicode="&#xe920;" glyph-name="icwind" d="M165.161 528.516c-9.121 0-16.516-7.395-16.516-16.516s7.395-16.516 16.516-16.516h693.677c9.121 0 16.516 7.395 16.516 16.516s-7.395 16.516-16.516 16.516h-693.677zM16.516 611.097h990.968c9.121 0 16.516 7.395 16.516 16.516s-7.395 16.516-16.516 16.516h-990.968c-9.121 0-16.516-7.395-16.516-16.516s7.395-16.516 16.516-16.516zM1007.484 412.903h-990.968c-9.121 0-16.516-7.395-16.516-16.516s7.395-16.516 16.516-16.516h990.968c9.121 0 16.516 7.395 16.516 16.516s-7.395 16.516-16.516 16.516z" />
<glyph unicode="&#xe921;" glyph-name="iccloudy" d="M967.214 526.063c36.001 29.588 56.842 73.758 56.786 120.357-0.126 70.287-47.071 131.879-114.81 150.632-9.484 39.87-34.757 74.177-70.025 95.051-39.777 23.511-88.043 27.811-131.351 11.704-42.885-15.587-75.982-50.373-89.422-93.978-10.773 1.477-21.629 2.255-32.503 2.328-127.554-0.167-234.179-97.067-246.508-224.024-127.030 50.645-271.063-11.275-321.71-138.305-50.645-127.030 11.275-271.063 138.305-321.71 18.134-7.23 37.057-12.29 56.38-15.073 11.638-1.63 23.377-2.451 35.128-2.46h519.989c33.296-0.111 66.284 6.368 97.065 19.066 130.66 53.466 193.236 202.73 139.77 333.387-9.279 22.677-21.771 43.904-37.093 63.026zM718.824 872.689c34.070 12.785 72.091 9.49 103.453-8.964 30.232-17.865 50.942-48.262 56.505-82.934 1.092-6.822 6.314-12.242 13.091-13.586 66.651-13.208 109.978-77.947 96.769-144.598-5.639-28.463-21.159-54.017-43.813-72.146-32.427 31.496-72.65 53.796-116.543 64.611-18.625 91.341-87.263 164.316-177.291 188.5 11.035 32.087 35.958 57.479 67.83 69.117zM986.167 323.097c-14.551-73.413-64.964-134.63-134.225-162.99-26.792-11.021-55.501-16.631-84.469-16.508h-519.989c-10.212 0.008-20.41 0.726-30.523 2.146-117.305 16.926-198.677 125.742-181.75 243.047s125.742 198.677 243.047 181.75c24.045-3.469 47.325-10.996 68.851-22.26 8.070-4.24 18.051-1.133 22.289 6.937 1.242 2.367 1.892 4.998 1.892 7.672v1.651c0.045 118.52 96.163 214.561 214.681 214.516 105.252-0.041 194.942-76.409 211.759-180.312 1.089-6.818 6.304-12.236 13.074-13.586 120.792-23.942 199.304-141.272 175.362-262.064z" />
<glyph unicode="&#xe922;" glyph-name="icrain" d="M1004.753 629.848c-31.088 75.748-96.515 132.068-176.045 151.538h0.066c-27.902 133.959-159.117 219.934-293.077 192.030-106.303-22.143-185.803-110.926-196.116-219.019-127.105 50.675-271.222-11.281-321.899-138.386s11.281-271.222 138.386-321.899c18.144-7.235 37.079-12.297 56.413-15.082 11.645-1.631 23.391-2.453 35.149-2.461h520.295c33.315-0.109 66.323 6.374 97.122 19.077 130.867 53.708 193.415 203.336 139.707 334.203zM986.751 489.197c-14.564-73.454-65.006-134.703-134.308-163.077-26.808-11.027-55.531-16.641-84.519-16.517h-520.295c-10.218 0.008-20.422 0.727-30.54 2.147-117.374 16.936-198.794 125.816-181.857 243.19s125.816 198.794 243.19 181.857c24.060-3.471 47.353-11.003 68.892-22.274 8.077-4.243 18.062-1.133 22.302 6.941 1.243 2.368 1.893 5.001 1.895 7.676v1.652c0.045 118.59 96.219 214.688 214.807 214.642 105.314-0.041 195.057-76.454 211.884-180.418 1.092-6.826 6.318-12.25 13.098-13.594 120.861-23.96 199.413-141.365 175.451-262.227zM264.147 260.050c-9.122 0-16.517-7.396-16.517-16.517v-181.69c0-9.122 7.396-16.517 16.517-16.517s16.517 7.396 16.517 16.517v181.69c0 9.124-7.394 16.517-16.517 16.517zM429.32 260.050c-9.122 0-16.517-7.396-16.517-16.517v-115.621c0-9.122 7.396-16.517 16.517-16.517s16.517 7.396 16.517 16.517v115.621c0 9.124-7.394 16.517-16.517 16.517zM611.010 260.050c-9.122 0-16.517-7.396-16.517-16.517v-181.69c0-9.122 7.396-16.517 16.517-16.517s16.517 7.396 16.517 16.517v181.69c0 9.124-7.394 16.517-16.517 16.517zM776.183 260.050c-9.122 0-16.517-7.396-16.517-16.517v-115.621c0-9.122 7.396-16.517 16.517-16.517s16.517 7.396 16.517 16.517v115.621c0 9.124-7.394 16.517-16.517 16.517z" />
<glyph unicode="&#xe923;" glyph-name="icmoon2" d="M908.899 396.546c-8.646 2.888-17.998-1.778-20.893-10.422-69.615-207.661-294.392-319.569-502.053-249.953-116.978 39.215-209.041 130.641-249.067 247.343-2.866 8.661-12.21 13.357-20.868 10.492-8.661-2.866-13.357-12.21-10.492-20.868 0.035-0.109 0.072-0.217 0.111-0.324 76.953-224.427 321.268-343.977 545.695-267.025 126.454 43.359 225.513 143.114 267.989 269.865 2.888 8.644-1.778 17.996-10.422 20.891zM115.613 629.242c8.636-2.938 18.017 1.681 20.957 10.314 0 0.002 0.002 0.006 0.002 0.008 70.441 207.362 295.647 318.359 503.009 247.917 117.25-39.831 209.16-132.146 248.475-249.569 2.892-8.665 12.261-13.347 20.926-10.455s13.347 12.261 10.455 20.926c-75.404 224.952-318.889 346.184-543.841 270.78-127.090-42.601-227.010-142.080-270.173-268.98-2.94-8.595 1.612-17.953 10.19-20.942zM1007.484 594.558h-990.968c-9.121 0-16.516-7.395-16.516-16.516s7.395-16.516 16.516-16.516h990.968c9.121 0 16.516 7.395 16.516 16.516s-7.395 16.516-16.516 16.516zM974.452 462.429h-924.903c-9.121 0-16.516-7.395-16.516-16.516s7.395-16.516 16.516-16.516h924.903c9.121 0 16.516 7.395 16.516 16.516s-7.395 16.516-16.516 16.516z" />
<glyph unicode="&#xe93e;" glyph-name="uniE93E" d="M512 634.5q25.5 0 47.75-9.75t38.75-26.25 26.25-38.75 9.75-47.75-9.75-47.75-26.25-38.75-38.75-26.25-47.75-9.75-47.75 9.75-38.75 26.25-26.25 38.75-9.75 47.75 9.75 47.75 26.25 38.75 38.75 26.25 47.75 9.75zM512 442.5q14.5 0 27.25 5.5t22 14.75 14.75 22 5.5 27.25-5.5 27.25-14.75 22-22 14.75-27.25 5.5-27.25-5.5-22-14.75-14.75-22-5.5-27.25 5.5-27.25 14.75-22 22-14.75 27.25-5.5zM870 870q36-35.5 63.5-77t46.5-87 28.75-94.5 9.75-99.5-9.75-99.5-28.75-94.5-46.5-87-63.5-77l-37.5 37.5q32 32 56.75 69t41.5 78 25.5 84.75 8.75 88.75-8.75 88.75-25.5 84.75-41.5 78-56.75 69zM191.5 832.5q-32-32-56.75-69t-41.75-78-25.75-84.75-8.75-88.75 8.75-88.75 25.75-84.75 41.75-78 56.75-69l-37.5-37.5q-36 35.5-63.5 77t-46.5 87-28.75 94.5-9.75 99.5 9.75 99.5 28.75 94.5 46.5 87 63.5 77zM734.5 734.5q44.5-45 68.25-102.25t23.75-120.25-23.75-120.25-68.25-102.25l-37.5 37.5q37 37 56.75 84.75t19.75 100.25-19.75 100.25-56.75 84.75zM327 697q-37-37-56.75-84.75t-19.75-100.25 19.75-100.25 56.75-84.75l-37.5-37.5q-44.5 45-68.25 102.25t-23.75 120.25 23.75 120.25 68.25 102.25z" />
<glyph unicode="&#xe946;" glyph-name="uniE946" d="M512 32q-66.5 0-127.75 17t-114.75 48.25-97.25 75-75 97.25-48.25 114.75-17 127.75 17 127.75 48.25 114.75 75 97.25 97.25 75 114.75 48.25 127.75 17 127.75-17 114.75-48.25 97.25-75 75-97.25 48.25-114.75 17-127.75-17-127.75-48.25-114.75-75-97.25-97.25-75-114.75-48.25-127.75-17zM512 928q-57.5 0-110.5-15t-99.25-42-84.25-65-65-84.25-42-99.5-15-110.25 15-110.25 42-99.5 65-84.25 84.25-65 99.25-42 110.5-15q57 0 110.25 15t99.5 42 84.25 65 65 84.25 42 99.25 15 110.5q0 57-15 110.25t-42 99.5-65 84.25-84.25 65-99.5 42-110.25 15zM480 608h64v-320h-64v320zM480 736h64v-64h-64v64z" />
<glyph unicode="&#xe947;" glyph-name="uniE947" d="M902.5 921.5l-377.5-377.5 377.5-377.5-45-45-377.5 377.5-377.5-377.5-45 45 377.5 377.5-377.5 377.5 45 45 377.5-377.5 377.5 377.5 45-45z" />
<glyph unicode="&#xe948;" glyph-name="uniE948" d="M960 576v-64h-448v-448h-64v448h-448v64h448v448h64v-448h448z" />
<glyph unicode="&#xe949;" glyph-name="uniE949" d="M0 546.136h1024v-68.268h-1024v68.268z" />
<glyph unicode="&#xe94a;" glyph-name="uniE94A" d="M576 192q0-13.5-5-25t-13.75-20.25-20.25-13.75-25-5-25 5-20.25 13.75-13.75 20.25-5 25 5 25 13.75 20.25 20.25 13.75 25 5 25-5 20.25-13.75 13.75-20.25 5-25zM576 896q0-13.5-5-25t-13.75-20.25-20.25-13.75-25-5-25 5-20.25 13.75-13.75 20.25-5 25 5 25 13.75 20.25 20.25 13.75 25 5 25-5 20.25-13.75 13.75-20.25 5-25zM992 512h-960v64h960v-64z" />
<glyph unicode="&#xe94b;" glyph-name="uniE94B" d="M737.5 1024h60.5l-510.5-1024-211.5 449.5h-76v63.5h115.5l172-383 450 894z" />
<glyph unicode="&#xe94c;" glyph-name="uniE94C" d="M384 832q0-40-15-74.75t-41.25-61-61.25-41.25-74.5-15q-40 0-74.75 15t-61 41.25-41.25 61-15 74.75q0 39.5 15 74.5t41.25 61.25 61 41.25 74.75 15q39.5 0 74.5-15t61.25-41.25 41.25-61.25 15-74.5zM192 704q26.5 0 49.75 10t40.75 27.5 27.5 40.75 10 49.75-10 49.75-27.5 40.75-40.75 27.5-49.75 10-49.75-10-40.75-27.5-27.5-40.75-10-49.75 10-49.75 27.5-40.75 40.75-27.5 49.75-10zM768 448q39.5 0 74.5-15t61.25-41.25 41.25-61.25 15-74.5q0-40-15-74.75t-41.25-61-61.25-41.25-74.5-15q-40 0-74.75 15t-61 41.25-41.25 61-15 74.75q0 39.5 15 74.5t41.25 61.25 61 41.25 74.75 15zM768 128q26.5 0 49.75 10t40.75 27.5 27.5 40.75 10 49.75-10 49.75-27.5 40.75-40.75 27.5-49.75 10-49.75-10-40.75-27.5-27.5-40.75-10-49.75 10-49.75 27.5-40.75 40.75-27.5 49.75-10zM756 1024l-480-960h-72l480 960h72z" />
<glyph unicode="&#xe94d;" glyph-name="uniE94D" d="M512 640h320v-64h-320v-320h-64v320h-320v64h320v320h64v-320zM128 128v64h704v-64h-704z" />
<glyph unicode="&#xe94e;" glyph-name="uniE94E" d="M0 320v64h960v-64h-960zM0 768h960v-64h-960v64z" />
<glyph unicode="&#xe94f;" glyph-name="uniE94F" d="M502.5 329.5l-45 45 137 137.5-137 137.5 45 45 137.5-137 137.5 137 45-45-137-137.5 137-137.5-45-45-137.5 137zM384 896h640v-768h-640l-384 384zM960 192v640h-549.5l-320-320 320-320h549.5z" />
<glyph unicode="&#xe992;" glyph-name="uniE992" d="M338.5 896h45.5v-768h-45l-192.5 192h-146.5v384h146.5zM320 237.5v549l-146.5-146.5h-109.5v-256h109.5z" />
<glyph unicode="&#xe993;" glyph-name="uniE993" d="M565 693q36.5-36.5 55.75-83t19.25-98-19.25-98-55.75-83l-45 45q27 27 41.5 62.25t14.5 73.75-14.5 73.75-41.5 62.25zM338.5 896h45.5v-768h-45l-192.5 192h-146.5v384h146.5zM320 786.5l-146.5-146.5h-109.5v-256h109.5l146.5-146.5v549z" />
<glyph unicode="&#xe994;" glyph-name="uniE994" d="M701 829q63-64 97-145.5t34-171.5-34-171.5-97-145.5l-45.5 45.5q54.5 54.5 83.5 124.5t29 147-29 147-83.5 124.5zM565 693q36.5-36.5 55.75-83t19.25-98-19.25-98-55.75-83l-45 45q27 27 41.5 62.25t14.5 73.75-14.5 73.75-41.5 62.25zM338.5 896h45.5v-768h-45l-192.5 192h-146.5v384h146.5zM320 786.5l-146.5-146.5h-109.5v-256h109.5l146.5-146.5v549z" />
<glyph unicode="&#xe995;" glyph-name="uniE995" d="M836.5 964.5q45-45 80-97.5t58.75-110 36.25-119.5 12.5-125.5q0-64-12.5-125.75t-36.25-119.25-58.75-110-80-97.5l-45.5 45.5q40.5 40.5 72 87.75t53 99 32.5 107.25 11 113-11 113-32.5 107.25-53 99-72 87.75zM832 512q0-90-34-171.5t-97-145.5l-45.5 45.5q54.5 54.5 83.5 124.5t29 147-29 147-83.5 124.5l45.5 45.5q63-64 97-145.5t34-171.5zM565 693q36.5-36.5 55.75-83t19.25-98-19.25-98-55.75-83l-45 45q27 27 41.5 62.25t14.5 73.75-14.5 73.75-41.5 62.25zM338.5 896h45.5v-768h-45l-192.5 192h-146.5v384h146.5zM320 786.5l-146.5-146.5h-109.5v-256h109.5l146.5-146.5v549z" />
<glyph unicode="&#xea55;" glyph-name="uniEA55" d="M1024 256v64h-639.96v-64h639.96zM1024 576h-1023.94v-64h1023.94v64zM192.051 832v-64h831.95v64h-831.95z" />
<glyph unicode="&#xea92;" glyph-name="uniEA92" d="M752 960.5q56.5 0 106-21.25t86.5-58.25 58.25-86.5 21.25-106q0-54.5-20.75-104.25t-58.75-87.75l-432.5-432.5-432.5 432.5q-38 38-58.75 87.75t-20.75 104.25q0 56.5 21.25 106t58.25 86.5 86.5 58.25 106 21.25q55.5 0 104.25-20.25t88.25-59.25q12-11.5 23.75-23.5t23.75-24q12 12 23.75 24t23.75 23.5q39.5 39 88.25 59.25t104.25 20.25zM899 541.5q29.5 29.5 45 67.5t15.5 79.5q0 43.5-16.25 81.25t-44.25 66-65.75 44.5-81.25 16.25q-42 0-79.5-15.5t-67.5-45q-33-32.5-64.25-65.5t-63.25-66l192-192-151-150.5-45 45 105.5 105.5-192 192 81.5 82q-13 11.5-25 24.5t-24.5 25q-30 29.5-67.25 45t-79.75 15.5q-43.5 0-81.25-16.25t-66-44.5-44.5-66-16.25-81.25q0-41 16-79.5t45-67.5l387-387z" />
<glyph unicode="&#xeb51;" glyph-name="uniE0062" d="M752 960q56.5 0 106-21.5t86.5-58.25 58.25-86.5 21.25-105.75q0-54.5-20.75-104.5t-58.75-88l-432.5-432-432.5 432q-38 38-58.75 88t-20.75 104.5q0 56 21.25 105.75t58.25 86.5 86.5 58.25 106 21.5q41.5 0 74-9.5t60.25-26.25 53-40.25 52.75-51.5q27.5 28 52.75 51.5t53 40.25 60.25 26.25 74 9.5zM899 541q29.5 29.5 45 67.5t15.5 79.5q0 43.5-16 81.25t-44.25 65.5-66 43.5-81.25 15.75q-42 0-74.5-13.25t-60-34.75-52.75-48.75-52.75-55.25q-27 27-52.5 54.5t-53.25 49.5-60.5 36-73.75 14q-43 0-81-16.25t-66.25-44.5-44.5-66.25-16.25-81q0-41.5 15.75-79.5t45.25-67.5l387-387z" />
<glyph unicode="&#xeb52;" glyph-name="uniE00B2" d="M944.5 880.5q26.5-26.5 44.25-58t26.5-65.5 8.75-69.25-8.75-69-26.5-65.25-44.25-58l-432.5-432-432.5 432q-26.5 26.5-44.25 58t-26.5 65.25-8.75 69 8.75 69.25 26.5 65.5 44.25 58q39 38.5 88.5 59t104 20.5 104-20.5 88.5-59l47.5-48 47.5 48q39 38.5 88.5 59t104 20.5 104-20.5 88.5-59z" />
<glyph unicode="&#xeb91;" glyph-name="uniEB91" d="M256 213.5v597h512v-597h-512zM298.5 768v-512h427v512h-427zM0 298.5v427h213.5v-427h-213.5zM42.5 682.5v-341h128v341h-128zM810.5 725.5h213.5v-427h-213.5v427zM981.5 341.5v341h-128v-341h128z" />
<glyph unicode="&#xeb9f;" glyph-name="uniEB9F" d="M1024 896v-768h-1024v768h1024zM64 832v-338.5l224 223.5 320-320 128 128 224-223.5v530.5h-896zM64 192h658.5l-434.5 435-224-224.5v-210.5zM960 192v18.5l-224 224.5-83-83 160.5-160h146.5zM800 640q-13 0-22.5 9.5t-9.5 22.5 9.5 22.5 22.5 9.5 22.5-9.5 9.5-22.5-9.5-22.5-22.5-9.5z" />
<glyph unicode="&#xebaa;" glyph-name="uniEBAA" horiz-adv-x="1536" d="M1408 576h64v-128h-64v-256h-1280v640h1280v-256zM1344 256v512h-1152v-512h1152zM1280 704v-384h-1024v384h1024z" />
<glyph unicode="&#xebd2;" glyph-name="uniEBD2" d="M960 640h-64v-320h64v-192h-192v60l-192-95.5v-92.5h-192v92.5l-192 95.5v-60h-192v192h64v320h-64v192h184.5l199.5 99.5v92.5h192v-92.5l199.5-99.5h184.5v-192zM832 768v-64h64v64h-64zM448 960v-64h64v64h-64zM576 832h-192v28.5l-192-96.5v-24.5l192-95.5v60h192v-60l192 95.5v24.5l-192 96.5v-28.5zM448 576h64v64h-64v-64zM64 768v-64h64v64h-64zM128 192v64h-64v-64h64zM192 260l192-96.5v28.5h64v320h-64v60l-192 96.5v-28.5h-64v-320h64v-60zM512 64v64h-64v-64h64zM896 192v64h-64v-64h64zM832 320v320h-64v28.5l-192-96.5v-60h-64v-320h64v-28.5l192 96.5v60h64z" />
<glyph unicode="&#xec37;" glyph-name="uniEC37" d="M64 320h128v-192h-128v192z" />
<glyph unicode="&#xec38;" glyph-name="uniEC38" d="M64 128v192h128v-192h-128zM256 448h128v-320h-128v320z" />
<glyph unicode="&#xec39;" glyph-name="uniEC39" d="M64 128v192h128v-192h-128zM256 128v320h128v-320h-128zM448 576h128v-448h-128v448z" />
<glyph unicode="&#xec3a;" glyph-name="uniEC3A" d="M64 128v192h128v-192h-128zM256 128v320h128v-320h-128zM448 128v448h128v-448h-128zM640 704h128v-576h-128v576z" />
<glyph unicode="&#xec3b;" glyph-name="uniEC3B" d="M64 128v192h128v-192h-128zM256 128v320h128v-320h-128zM448 128v448h128v-448h-128zM640 128v576h128v-576h-128zM832 832h128v-704h-128v704z" />
<glyph unicode="&#xec3c;" glyph-name="uniEC3C" d="M864 320q20 0 37.5-7.5t30.5-20.5 20.5-30.5 7.5-37.5-7.5-37.5-20.5-30.5-30.5-20.5-37.5-7.5-37.5 7.5-30.5 20.5-20.5 30.5-7.5 37.5 7.5 37.5 20.5 30.5 30.5 20.5 37.5 7.5z" />
<glyph unicode="&#xec3d;" glyph-name="uniEC3D" d="M576 128q0 53 13.75 102.25t38.75 91.75 60 77.5 77.5 60 91.75 38.75 102.25 13.75v-64q-44 0-85-11.5t-76.5-32.25-64.75-50-50-64.75-32.25-76.5-11.5-85h-64zM864 320q20 0 37.5-7.5t30.5-20.5 20.5-30.5 7.5-37.5-7.5-37.5-20.5-30.5-30.5-20.5-37.5-7.5-37.5 7.5-30.5 20.5-20.5 30.5-7.5 37.5 7.5 37.5 20.5 30.5 30.5 20.5 37.5 7.5z" />
<glyph unicode="&#xec3e;" glyph-name="uniEC3E" d="M576 128q0 53 13.75 102.25t38.75 91.75 60 77.5 77.5 60 91.75 38.75 102.25 13.75v-64q-44 0-85-11.5t-76.5-32.25-64.75-50-50-64.75-32.25-76.5-11.5-85h-64zM384 128q0 79.5 20.5 153.25t58 137.75 90 116.5 116.5 90 137.75 58 153.25 20.5v-64q-70.5 0-136-18.25t-122.25-51.75-103.5-80.25-80.25-103.5-51.75-122.25-18.25-136h-64zM864 320q20 0 37.5-7.5t30.5-20.5 20.5-30.5 7.5-37.5-7.5-37.5-20.5-30.5-30.5-20.5-37.5-7.5-37.5 7.5-30.5 20.5-20.5 30.5-7.5 37.5 7.5 37.5 20.5 30.5 30.5 20.5 37.5 7.5z" />
<glyph unicode="&#xec3f;" glyph-name="uniEC3F" d="M576 128q0 53 13.75 102.25t38.75 91.75 60 77.5 77.5 60 91.75 38.75 102.25 13.75v-64q-44 0-85-11.5t-76.5-32.25-64.75-50-50-64.75-32.25-76.5-11.5-85h-64zM384 128q0 79.5 20.5 153.25t58 137.75 90 116.5 116.5 90 137.75 58 153.25 20.5v-64q-70.5 0-136-18.25t-122.25-51.75-103.5-80.25-80.25-103.5-51.75-122.25-18.25-136h-64zM192 128q0 106 27.5 204t77.5 183.5 120 155.5 155.5 120 183.5 77.5 204 27.5v-64q-97 0-186.75-25.25t-168-71-142.75-110.25-110.25-142.75-71-168-25.25-186.75h-64zM864 320q20 0 37.5-7.5t30.5-20.5 20.5-30.5 7.5-37.5-7.5-37.5-20.5-30.5-30.5-20.5-37.5-7.5-37.5 7.5-30.5 20.5-20.5 30.5-7.5 37.5 7.5 37.5 20.5 30.5 30.5 20.5 37.5 7.5z" />
<glyph unicode="&#xec40;" glyph-name="uniEC40" d="M832 640q26.5 0 49.75-10t40.75-27.5 27.5-40.75 10-49.75-10-49.75-27.5-40.75-40.75-27.5-49.75-10h-188l-128-256h-197l64 256h-91.5l-31.5-64h-231.5l95.5 192-95.5 192h231.5l31.5-64h91.5l-64 256h197l128-256h188zM832 448q13.5 0 25 5t20.25 13.75 13.75 20.25 5 25-5 25-13.75 20.25-20.25 13.75-25 5h-227.5l-128 256h-75.5l64-256h-213l-31.5 64h-88.5l64-128-64-128h88.5l31.5 64h213l-64-256h75.5l128 256h227.5z" />
<glyph unicode="&#xec41;" glyph-name="uniEC41" d="M749.5 704l-160.5-160 160.5-160-237.5-237.5v320l-128-128-45.5 45.5 160.5 160-160.5 160 45.5 45.5 128-128v320zM576 786.5v-165l82.5 82.5zM658.5 384l-82.5 82.5v-165z" />
<glyph unicode="&#xec42;" glyph-name="uniEC42" d="M960 832v-704h-320l-128-128-128 128h-320v704h896zM896 768h-768v-576h282.5q26.5-25 51.25-50.5t50.25-51q25.5 25.5 50.25 51t51.25 50.5h282.5v576zM768 576h-512v64h512v-64zM768 448h-512v64h512v-64zM576 320h-320v64h320v-64z" />
<glyph unicode="&#xec43;" glyph-name="uniEC43" d="M512 896q53 0 102-13.75t91.75-38.75 77.75-60 60-77.75 38.75-91.75 13.75-102-13.75-102-38.75-91.75-60-77.75-77.75-60-91.75-38.75-102-13.75-102 13.75-91.75 38.75-77.75 60-60 77.75-38.75 91.75-13.75 102 13.75 102 38.75 91.75 60 77.75 77.75 60 91.75 38.75 102 13.75zM512 192q44 0 85 11.5t76.5 32.25 64.75 50 50 64.75 32.25 76.5 11.5 85-11.5 85-32.25 76.5-50 64.75-64.75 50-76.5 32.25-85 11.5-85-11.5-76.5-32.25-64.75-50-50-64.75-32.25-76.5-11.5-85 11.5-85 32.25-76.5 50-64.75 64.75-50 76.5-32.25 85-11.5zM512 704q39.5 0 74.5-15t61.25-41.25 41.25-61.25 15-74.5q0-40-15-74.75t-41.25-61-61.25-41.25-74.5-15q-40 0-74.75 15t-61 41.25-41.25 61-15 74.75q0 39.5 15 74.5t41.25 61.25 61 41.25 74.75 15z" />
<glyph unicode="&#xec46;" glyph-name="uniEC46" d="M560 704q0 50.5-13 99.25t-38.5 92.75h3.5q53 0 102-13.75t91.75-38.75 77.75-60 60-77.75 38.75-91.75 13.75-102-13.75-102-38.75-91.75-60-77.75-77.75-60-91.75-38.75-102-13.75q-51.5 0-100 13.25t-91.75 38.25-79 60.5-61.75 80q52.5 0.5 101.25 14.5t91 39.25 77 60.25 59.5 77.5 38.25 91.25 13.5 101.25zM512 192q66.5 0 124.75 25t101.75 68.5 68.5 101.75 25 124.75q0 53-16 101t-45.25 87.75-70.25 69.5-91 46.75q14.5-56.5 14.5-113 0-75-23.75-143.75t-66.75-125.75-102.75-98.75-131.75-62.25q45.5-39.5 99-60.5t114-21z" />
<glyph unicode="&#xeca5;" glyph-name="uniECA5" d="M640 896v-320h-640v320h640zM576 640v192h-512v-192h512zM704 896h320v-320h-320v320zM960 640v192h-192v-192h192zM384 192v320h640v-320h-640zM448 448v-192h512v192h-512zM0 192v320h320v-320h-320zM64 448v-192h192v192h-192z" />
<glyph unicode="&#xed0d;" glyph-name="uniED0D" d="M1024 1024h-1023.94v-832h319.981l191.989-192 191.988 192h319.981v832zM64.058 256v704h895.945v-704h-282.483l-165.49-165.5-165.49 165.5h-282.483z" />
<glyph unicode="&#xed3c;" glyph-name="uniED3C" d="M231 450q17 4.5 35.25 12.25t36.25 17.25 34.5 20.5 30 22h19.5v-458h-51.5v387q-7.5-7.5-20.75-16t-28.25-15.75-29.75-13-25.25-8.25v52zM683 519.5q31 0 53.25-10.25t38-27.75 25.25-40.75 15-48.75 7.25-51.75 1.75-50.25q0-24.5-2.5-51.25t-9-52.75-17.25-49.5-27.5-41.5-39.75-28.5-54-10.5q-29.5 0-51.25 10.25t-37.5 27.25-26 39.5-16.25 47.25-8.25 50.25-2.25 48.5q0 25 2.25 52.75t8.25 54.25 16.5 50.75 27.5 42.75 40.5 29.25 56 10.75zM678.5 100q21.5 0 37 9.5t25.75 24.75 16.25 35 9.25 40.25 4 40.25 0.75 35.25q0 15-0.75 35t-3.75 41.25-8.75 41.75-16 36.75-25.25 26.25-36.5 10q-22.5 0-38.25-10t-26.5-26.25-17-37-9.5-42.5-4-42.25-0.75-36.5q0-15.5 1-35.25t4-39.75 9.25-39.25 16.5-34.25 25.75-24 37.5-9zM519 960q86.5 0 167-27.25t147.25-76.75 116.25-118.5 74.5-152l-61-19q-22.5 74-65.5 134.75t-101.5 104-129.25 67-147.75 23.75q-65 0-127-18.25t-116-51.5-98-80.5-73-105.75h158v-64h-256v256h64v-121.5q36 58 84.75 104.25t106.75 78.5 123 49.5 133.5 17.25z" />
<glyph unicode="&#xed3d;" glyph-name="uniED3D" d="M352 284q22-2 41.25-10.25t33.75-22.25 22.75-32.75 8.25-41.75q0-33.5-13-58.75t-35-42-50.5-25.25-59-8.5q-26.5 0-53 5t-49 19.5v55q45-36 103.5-36 20 0 38.75 5.25t33 15.75 23 26.75 8.75 38.75q0 23-7.5 38.25t-20 25.25-29 15-34.5 7-36.5 2.25-35 0.25v43q23.5 0 49.25 1t47.25 8.5 35.5 24.5 14 49q0 41-23 58.5t-61.5 17.5q-25 0-47.25-8.5t-41.75-23.5v50q23 14 49 19.75t53 5.75q24.5 0 46.75-6.75t39.5-20.25 27.5-33.5 10.25-46.5q0-46-22.75-73.75t-66.75-39.75v-1.5zM683 506q31 0 53.25-10.25t38-27.75 25.25-40.75 15-48.75 7.25-51.75 1.75-50.25q0-24.5-2.5-51.25t-8.75-52.75-17.25-49.5-27.5-41.5-39.75-28.5-54.25-10.5q-29.5 0-51.5 10.25t-37.75 27.25-25.75 39.5-16 47.25-8.25 50.25-2.25 48.5q0 25 2.25 52.75t8.25 54.25 16.75 50.75 27.5 42.75 40.5 29.25 55.75 10.75zM678.5 86q21.5 0 37 9.5t25.75 25 16.25 35.25 9.25 40.25 4 40.25 0.75 35.25q0 15-0.75 35t-3.75 41.25-8.75 41.75-16 36.75-25.25 26.25-36.5 10q-22.5 0-38.25-10t-26.5-26.25-17-37-9.5-42.5-4-42.25-0.75-36.5q0-15.5 1-35.25t4-40 9.25-39.5 16.5-34.25 25.75-24 37.5-9zM1024 832v-256h-256v64h158q-29.5 58.5-73.25 105.75t-97.75 80.5-116 51.5-127 18.25q-77.5 0-148-23.75t-128.75-67-101.5-104-65.75-134.75l-61 19q16.5 55.5 44.25 104.75t64.75 91 81.75 74.75 95.25 56.25 105.75 35.5 113.25 12.25q68 0 133.25-17.25t123.25-49.5 106.75-78.5 84.75-104.25v121.5h64z" />
<glyph unicode="&#xed41;" glyph-name="uniED41" d="M768 1024q13 0 24.75-5t20.5-13.75 13.75-20.5 5-24.75v-465q0-15 4.75-26.25t11.75-21.5 15.5-20.5 15.5-23 11.75-29.25 4.75-38.5v-144q0-13-5-24.75t-13.75-20.5-20.5-13.75-24.75-5h-704v896h640zM192 192h512v144q0 22 4.75 38.5t11.75 29.25 15.5 23 15.5 20.5 11.75 21.5 4.75 26.25v465h-576v-768zM832 336q0 12-2.25 21t-6.5 16.5-10.25 14.75-13 15.75q-7-8.5-13-15.75t-10.25-14.75-6.5-16.5-2.25-21v-144h64v144z" />
<glyph unicode="&#xed43;" glyph-name="uniED43" d="M768 1024q13 0 24.75-5t20.5-13.75 13.75-20.5 5-24.75v-464q0-15.5 4.75-27t11.75-21.75 15.5-20.5 15.5-22.75 11.75-29 4.75-39v-144q0-13-5-24.75t-13.75-20.5-20.5-13.75-24.75-5h-448v-64q0-19.5-10.75-35.5t-28.75-23.5q-11.5-5-24.5-5-26.5 0-45.5 19l-146.5 146.5v858.5h640zM320 240q0 22.5 4.75 38.75t11.75 29 15.5 22.75 15.5 20.25 11.75 22 4.75 27.25v322.5l-192 192v-722.5l128-128v176zM832 336q0 15.5-4.75 27t-11.75 21.75-15.5 20.5-15.5 22.75-11.75 29-4.75 39v464h-530.5l192-192q9-9 13.75-20.75t4.75-24.75v-322.5q0-22.5-4.75-38.75t-11.75-29-15.5-22.75-15.5-20.25-11.75-22-4.75-27.25v-48h448v144z" />
<glyph unicode="&#xede3;" glyph-name="uniEDE3" d="M512 1024q70.5 0 136-18.25t122.25-51.75 103.5-80.25 80.25-103.5 51.75-122.25 18.25-136-18.25-136-51.75-122.25-80.25-103.5-103.5-80.25-122.25-51.75-136-18.25-136 18.25-122.25 51.75-103.5 80.25-80.25 103.5-51.75 122.25-18.25 136 18.25 136 51.75 122.25 80.25 103.5 103.5 80.25 122.25 51.75 136 18.25zM512 64q61.5 0 118.75 16t107 45.25 90.75 70.25 70.25 90.75 45.25 106.75 16 119q0 61.5-16 118.75t-45.25 107-70.25 90.75-90.75 70.25-107 45.25-118.75 16-118.75-16-107-45.25-90.75-70.25-70.25-90.75-45.25-107-16-118.75 16-118.75 45.25-107 70.25-90.75 90.75-70.25 106.75-45.25 119-16zM288 544h448v-64h-448v64zM288 704h448v-64h-448v64zM288 384h448v-64h-448v64z" />
<glyph unicode="&#xee40;" glyph-name="uniEE40" d="M0 256v512h128v-64h-64v-384h64v-64h-128zM896 768h128v-512h-128v64h64v384h-64v64zM192 192v640h640v-640h-640zM256 768v-512h512v512h-512z" />
<glyph unicode="&#xeeca;" glyph-name="uniEECA" d="M512 1024q70.5 0 136-18.25t122.25-51.75 103.5-80.25 80.25-103.5 51.75-122.25 18.25-136-18.25-136-51.75-122.25-80.25-103.5-103.5-80.25-122.25-51.75-136-18.25-136 18.25-122.25 51.75-103.5 80.25-80.25 103.5-51.75 122.25-18.25 136 18.25 136 51.75 122.25 80.25 103.5 103.5 80.25 122.25 51.75 136 18.25zM512 64q61.5 0 118.75 16t107 45.25 90.75 70.25 70.25 90.75 45.25 106.75 16 119q0 61.5-16 118.75t-45.25 107-70.25 90.75-90.75 70.25-107 45.25-118.75 16-118.75-16-107-45.25-90.75-70.25-70.25-90.75-45.25-107-16-118.75 16-118.75 45.25-107 70.25-90.75 90.75-70.25 106.75-45.25 119-16zM448 576h320v-256h-320v256zM512 384h192v128h-192v-128zM320 640v-128h64v-64h-128v256h320v-64h-256z" />
<glyph unicode="&#xf003;" glyph-name="uniF003" d="M1024 672h-320v79l-358.5-239 358.5-239v79h320v-320h-320v164l-384 256v-100h-320v320h320v-100l384 256v164h320v-320zM768 288v-192h192v192h-192zM256 416v192h-192v-192h192zM768 928v-192h192v192h-192z" />
<glyph unicode="&#xf093;" glyph-name="uniF093" d="M512 1024q70.5 0 136-18.25t122.25-51.75 103.5-80.25 80.25-103.5 51.75-122.25 18.25-136q0-71-18.25-136.5t-51.5-122.25-80-103.5-103.5-80-122.25-51.5-136.5-18.25-136.5 18.25-122.25 51.5-103.5 80-80 103.5-51.5 122.25-18.25 136.5 18.25 136.5 51.5 122.25 80 103.5 103.5 80 122.25 51.5 136.5 18.25zM512 64q61.5 0 118.75 16t107 45.25 90.75 70.25 70.25 90.75 45.25 107 16 118.75-16 118.75-45.25 107-70.25 90.75-90.75 70.25-107 45.25-118.75 16q-62 0-119-16t-106.75-45.25-90.75-70.25-70.25-90.75-45.25-107-16-118.75q0-62 16-119t45.25-106.75 70.25-90.75 90.75-70.25 107-45.25 118.75-16zM461.5 707l-142-390h95.5l27.5 87h138.5l27.5-87h96l-139 390h-104zM461 471.5l42.5 131.5q2.5 8.5 4 17.25t2.5 17.25h2.5q1-8.5 2.25-17.5t3.75-17.5l42-131h-99.5z" />
<glyph unicode="&#xf094;" glyph-name="uniF094" d="M512 1024q70.5 0 136-18.25t122.25-51.75 103.5-80.25 80.25-103.5 51.75-122.25 18.25-136q0-71-18.25-136.5t-51.5-122.25-80-103.5-103.5-80-122.25-51.5-136.5-18.25-136.5 18.25-122.25 51.5-103.5 80-80 103.5-51.5 122.25-18.25 136.5 18.25 136.5 51.5 122.25 80 103.5 103.5 80 122.25 51.5 136.5 18.25zM512 64q61.5 0 118.75 16t107 45.25 90.75 70.25 70.25 90.75 45.25 107 16 118.75-16 118.75-45.25 107-70.25 90.75-90.75 70.25-107 45.25-118.75 16q-62 0-119-16t-106.75-45.25-90.75-70.25-70.25-90.75-45.25-107-16-118.75q0-62 16-119t45.25-106.75 70.25-90.75 90.75-70.25 107-45.25 118.75-16zM580.5 526.5v1q15 4 28.75 12.25t24.25 19.5 16.75 25.5 6.25 30.75q0 27.5-12.75 45.25t-32.75 28-43.75 14.25-46.25 4h-142v-390h149.5q27.5 0 53.25 6.5t45.75 20.75 32 36.25 12 53q0 20-7 36.25t-19.5 28-29 19-35.5 9.75zM466.5 642.5h33q11 0 22.5-1.75t20.75-6.25 15-13 5.75-22q0-13-4.75-22.5t-12.5-15.5-18.5-8.75-22.75-2.75h-38.5v92.5zM514.5 381.5h-48v103h48q12 0 23.75-2.5t21-8.25 14.75-15.5 5.5-23.75-5.5-24-14.5-16.5-20.75-9.5-24.25-3z" />
<glyph unicode="&#xf095;" glyph-name="uniF095" d="M512 1024q70.5 0 136-18.25t122.25-51.75 103.5-80.25 80.25-103.5 51.75-122.25 18.25-136q0-71-18.25-136.5t-51.5-122.25-80-103.5-103.5-80-122.25-51.5-136.5-18.25-136.5 18.25-122.25 51.5-103.5 80-80 103.5-51.5 122.25-18.25 136.5 18.25 136.5 51.5 122.25 80 103.5 103.5 80 122.25 51.5 136.5 18.25zM512 64q61.5 0 118.75 16t107 45.25 90.75 70.25 70.25 90.75 45.25 107 16 118.75-16 118.75-45.25 107-70.25 90.75-90.75 70.25-107 45.25-118.75 16q-62 0-119-16t-106.75-45.25-90.75-70.25-70.25-90.75-45.25-107-16-118.75q0-62 16-119t45.25-106.75 70.25-90.75 90.75-70.25 107-45.25 118.75-16zM516 529.5h-1q-2 7.5-4 16.25t-5 15.75l-63 145.5h-100.5l124-253v-137h88v139l127 251h-93.5l-63.5-146.5q-3.5-7.5-5.5-15.25t-3-15.75z" />
<glyph unicode="&#xf096;" glyph-name="uniF096" d="M512 1024q70.5 0 136-18.25t122.25-51.75 103.5-80.25 80.25-103.5 51.75-122.25 18.25-136q0-71-18.25-136.5t-51.5-122.25-80-103.5-103.5-80-122.25-51.5-136.5-18.25-136.5 18.25-122.25 51.5-103.5 80-80 103.5-51.5 122.25-18.25 136.5 18.25 136.5 51.5 122.25 80 103.5 103.5 80 122.25 51.5 136.5 18.25zM512 64q61.5 0 118.75 16t107 45.25 90.75 70.25 70.25 90.75 45.25 107 16 118.75-16 118.75-45.25 107-70.25 90.75-90.75 70.25-107 45.25-118.75 16q-62 0-119-16t-106.75-45.25-90.75-70.25-70.25-90.75-45.25-107-16-118.75q0-62 16-119t45.25-106.75 70.25-90.75 90.75-70.25 107-45.25 118.75-16zM689 707h-97.5l-62-115.5q-4-7-7-16.75t-5-17.75h-1.5q-2 8.5-5 16.75t-7 16.25l-55 117h-107l113.5-195-124-195h104.5l67.5 126q3 5.5 5.25 13t3.75 14h1q1.5-6.5 3.25-13.25t4.75-12.75l66.5-127h104.5l-120 197z" />
<glyph unicode="&#xf0e2;" glyph-name="uniF0E2" d="M64 541.866v418.134h418.134v-418.134h-418.134zM123.734 900.266v-298.666h298.666v298.666h-298.666zM64 64v418.134h418.134v-418.134h-418.134zM123.734 422.4v-298.666h298.666v298.666h-298.666zM541.866 64v418.134h418.134v-418.134h-418.134zM601.6 422.4v-298.666h298.666v298.666h-298.666zM541.866 960h418.134v-418.134h-418.134v418.134zM900.266 601.6v298.666h-298.666v-298.666h298.666z" />
<glyph unicode="&#xf108;" glyph-name="uniF108" d="M512 256h128v-64h-192v320h64v-256zM960 704q12 0 23.5-5.5t20.5-14.5 14.5-20.5 5.5-23.5v-128q0-12-5.5-23.5t-14.5-20.5-20.5-14.5-23.5-5.5h-192.5v-320h-63.5v384h253.5l2.5 2.5v123l-2.5 2.5h-891l-2.5-2.5v-123l2.5-2.5h253.5v-384h-64v320h-192q-12 0-23.5 5.5t-20.5 14.5-14.5 20.5-5.5 23.5v128q0 12 5.5 23.5t14.5 20.5 20.5 14.5 23.5 5.5h896z" />
<glyph unicode="&#xf109;" glyph-name="uniF109" d="M960 704q12 0 23.5-5.5t20.5-14.5 14.5-20.5 5.5-23.5v-128q0-12-5.5-23.5t-14.5-20.5-20.5-14.5-23.5-5.5h-192.5v-320h-63.5v384h253.5l2.5 2.5v123l-2.5 2.5h-891l-2.5-2.5v-123l2.5-2.5h253.5v-384h-64v320h-192q-12 0-23.5 5.5t-20.5 14.5-14.5 20.5-5.5 23.5v128q0 12 5.5 23.5t14.5 20.5 20.5 14.5 23.5 5.5h896zM640 400q0-27-12.75-50.25t-35.25-38.25l48-119.5h-64l-39 98q-10-2-20-2.5t-20-0.5q-12.5 0-24.5 0.5t-24.5 0.5v-96h-64v320h128q24.5 0 47.5-7.5t41-22 28.75-35.25 10.75-47.25zM512 352q10.5 0 22 2.75t20.75 8.75 15.25 15 6 21.5-6 21.5-15.25 15-20.75 8.75-22 2.75h-64v-96h64z" />
<glyph unicode="&#xf10a;" glyph-name="uniF10A" d="M832 1024q24 0 48.75-4.25t46.75-14.5 39-27.25 24.5-42.5q7-24 10.25-50.25t6.25-51.25q16.5-128.5 16.5-258 0-92-20.25-170.25t-58.25-142.25-92-113.25-121.5-82.5-147.25-50.5-168.75-17.25h-224q-19.5 0-41.75 6.75t-41.5 19-32 30-12.75 40.25q0 9 2.5 19.25t6.5 20.75 8.75 20.75 9.25 19.25l3.5 7q23 49 41.25 95.75t30.75 94.5 19 97.5 6.5 105.25q0 31-2.5 59.5t-7.5 56-12.5 55-17 56.5q-9.5 28.5-17.25 56.75t-7.75 58.75v5.75t0.5 5.75q2.5 22 15.25 39.5t31 29.5 39.75 18.5 42 6.5h576zM416 64q80 0 151.25 15t131.75 44.25 108.75 72.75 82.25 100.5 52 127 18 152.5q0 73-5.25 145.75t-16.25 145.25q-2 13-3.75 27.25t-5.75 26.25-15.75 19.75-26.25 12.25-29.5 6-25.5 1.5h-576q-7 0-17.25-2.5t-20-7-17.25-10.75-9.5-13.75q-0.5-1-0.5-4.25v-4.25q0-22.5 6-44t13-42.5l2.5-8q10.5-31.5 18.5-61.5t13.5-60.25 8.25-61.25 2.75-64q0-59-6.75-112.5t-20-104.5-32.5-101-44.25-102.5q-2-4-6-12.25t-8.25-17.5-7.25-17.75-3-12q0-6 8-11.75t18.75-10.25 21.25-7.25 16-2.75h224zM448 448h128v-64h-192v320h64v-256zM576 704h256v-64h-96v-256h-64v256h-96v64z" />
<glyph unicode="&#xf10b;" glyph-name="uniF10B" d="M832 576q0-55.5 6.5-105.25t19-97.5 30.5-94.5 41.5-95.75l3.5-7q4.5-9 9.25-19.25t8.75-20.75 6.5-20.75 2.5-19.25q0-22.5-12.75-40.25t-32-30-41.5-19-41.75-6.75h-224q-89 0-168.75 17.25t-147.25 50.5-121.5 82.5-92 113.25-58.25 142.25-20.25 170.25q0 129.5 16.5 258 3 25 6.25 51.25t10.25 50.25q7.5 25.5 24.5 42.5t39 27.25 46.75 14.5 48.75 4.25h576q22 0 45-7.25t41.5-20.75 30.25-33.25 11.75-44.25q0-30-7.75-58.5t-17.25-57q-10-29-17.25-56.5t-12.25-55.25-7.5-56.25-2.5-59zM832 64q5 0 15.75 2.75t21.5 7.25 18.75 10.25 8 11.75q0 3.5-3.25 12t-7.25 17.75-8 17.5-6 12.25q-25 52.5-44.25 102.5t-32.5 101-20 104.5-6.75 112.5q0 33.5 2.75 64.5t8.25 61 13.5 60 18.5 61.5l2.5 8q7 21 13 42.5t6 44q0 2.5-0.25 4.25t-0.25 4.25q0 7-8 13.25t-18.5 10.75-21.25 7.25-16.25 2.75h-576q-10.5 0-25.5-1.5t-29.5-6-26.25-12.25-15.75-19.75-5.75-26.25-3.75-27.25q-11-72.5-16.25-145.25t-5.25-145.75q0-82.5 18-152.5t52-127 82.25-100.5 108.75-72.75 131.75-44.25 151.25-15h224zM448 592q0-27.5-12.75-50.5t-35.25-38l48-119.5h-64l-39 98q-10-2-20-2.5t-20-0.5q-12.5 0-24.75 0.5t-24.25 0.5v-96h-64v320h128q24.5 0 47.5-7.5t41-22 28.75-35.25 10.75-47.25zM320 544q10.5 0 22 2.75t20.75 8.75 15.25 15 6 21.5-6 21.5-15.25 15-20.75 8.75-22 2.75h-64v-96h64zM448 704h256v-64h-96v-256h-64v256h-96v64z" />
<glyph unicode="&#xf10c;" glyph-name="uniF10C" d="M320 384h128v-64h-192v320h64v-256zM702.5 489q16-14 24.75-33t8.75-40q0-20-7.5-37.5t-20.5-30.5-30.5-20.5-37.5-7.5h-128v320h112q20 0 37.5-7.5t30.5-20.5 20.5-30.5 7.5-37.5q0-30.5-17.5-55zM576 512h48q13 0 22.5 9.5t9.5 22.5-9.5 22.5-22.5 9.5h-48v-64zM640 384q13 0 22.5 9.5t9.5 22.5-9.5 22.5-22.5 9.5h-64v-64h64zM752 832q28.5 0 55.25-10.5t47.25-31l128-128q20.5-20.5 31-47.25t10.5-55.25q0-30-4-61.75t-13.5-60.25l-48-143q-2.5-6.5-4-12t-4.5-11.5q-9.5-19-23.75-34t-31.75-25-37.5-15.25-41-5.25h-688q-26.5 0-49.75 10t-40.75 27.5-27.5 40.75-10 49.75v4l32 254q1 6.5 1.25 12.5t1.75 12.5q6 25.5 21.25 46.5t34.25 38q32 28.5 76.25 50.5t95.25 38 106 26.75 108.75 17.25 104 9.25 91.25 2.75h80zM816 256q23.5 0 44.5 10.75t32 32.25q2 4 3 7.5t2 7.5l48 143.5q8 24 11.25 50.5t3.25 52q0 16-5.75 31t-17.25 26.5l-127.5 127.5q-11.5 11.5-26.5 17.25t-31 5.75h-80q-51 0-104.75-3.25t-107.75-10.75-106.25-19.75-100.25-29.75q-12-4.5-28.25-11.25t-33.75-16-34.5-20.25-30.5-23.75-21.75-27.25-8.25-30q0-1-0.25-2t-0.25-2l-31.5-254.5q0-2.5 0.75-7t1.25-6.5q3-10.5 8.75-19.25t14-15.25 18.25-10 21-3.5h688z" />
<glyph unicode="&#xf10d;" glyph-name="uniF10D" d="M480 528q0-29-14-54.25t-38.5-40.75l56-113h-71l-48.5 96h-44v-96h-64v320h112q23 0 43.5-8.75t35.75-24 24-35.75 8.75-43.5zM320 480h48q20 0 34 14t14 34-14 34-34 14h-48v-96zM766.5 489q16-14 24.75-33t8.75-40q0-20-7.5-37.5t-20.5-30.5-30.5-20.5-37.5-7.5h-128v320h112q20 0 37.5-7.5t30.5-20.5 20.5-30.5 7.5-37.5q0-30.5-17.5-55zM640 512h48q13 0 22.5 9.5t9.5 22.5-9.5 22.5-22.5 9.5h-48v-64zM704 384q13 0 22.5 9.5t9.5 22.5-9.5 22.5-22.5 9.5h-64v-64h64zM1024 320q0-26.5-10-49.75t-27.5-40.75-40.75-27.5-49.75-10h-688q-51.5 0-89.25 27t-53.75 76l-47.5 143q-9.5 28.5-13.5 60.25t-4 61.75q0 28.5 10.5 55.25t31 47.25l128 128q20.5 20.5 47.25 31t55.25 10.5h80q41 0 91.25-2.75t104-9.25 108.75-17.25 105.75-26.75 95-38 76.75-50.5q19-17 34.25-38t21.25-46.5q1.5-6.5 1.75-12.5t1.25-12.5l32-254v-4zM896 256q11 0 21 3.5t18.25 10 14 15.25 8.75 19.25q0.5 1.5 1.25 6t0.75 8l-31.5 254q0 1-0.25 2t-0.25 2q0 15.5-8.25 30t-21.75 27.25-30.5 23.75-34.5 20.25-33.75 16-28.25 11.25q-48 17.5-100.25 29.75t-106.25 19.75-107.75 10.75-104.75 3.25h-80q-16 0-31-5.75t-26.5-17.25l-127.5-127.5q-11.5-11.5-17.25-26.5t-5.75-31q0-25.5 3.25-52t11.25-50.5l48-143.5q1-4 2-7.5t3-7.5q11.5-21.5 32.25-32.25t44.25-10.75h688z" />
<glyph unicode="&#xf10e;" glyph-name="uniF10E" d="M832 640v-256h-192v-192h-256v192h-192v256h192v192h256v-192h192zM768 448v128h-192v192h-128v-192h-192v-128h192v-192h128v192h192z" />
<glyph unicode="&#xf22c;" glyph-name="uniF22C" d="M896 576q26.5 0 49.75-10t40.75-27.5 27.5-40.75 10-49.75-10-49.75-27.5-40.75-40.75-27.5-49.75-10q-25 0-47 9t-39.25 24.75-28.25 37-13 46.25l-75 12.5q-12-34.5-35.75-62.25t-55.75-44.75l29-87q2.5 0.5 4.5 0.5h4.5q26.5 0 49.75-10t40.75-27.5 27.5-40.75 10-49.75-10-49.75-27.5-40.75-40.75-27.5-49.75-10-49.75 10-40.75 27.5-27.5 40.75-10 49.75q0 33 15.75 61.5t42.75 46l-29 87q-7-1-14.5-1.75t-15-0.75q-46 0-86.75 20.75t-68.25 57.75l-104-51.5q3-13.5 3-27 0-26.5-10-49.75t-27.5-40.75-40.75-27.5-49.75-10-49.75 10-40.75 27.5-27.5 40.75-10 49.75 10 49.75 27.5 40.75 40.75 27.5 49.75 10q28 0 53-11.5t43.5-32.5l104 52q-8.5 28-8.5 56 0 35.5 12.5 68.5t36.5 59.5l-60.5 75.5q-25.5-11.5-52.5-11.5-26.5 0-49.75 10t-40.75 27.5-27.5 40.75-10 49.75 10 49.75 27.5 40.75 40.75 27.5 49.75 10 49.75-10 40.75-27.5 27.5-40.75 10-49.75q0-42.5-25.5-76.5l60-75.5q21.5 11.5 45.25 17.75t48.25 6.25q41.5 0 78.5-16.5l82 123q-15.5 17.5-24 39.5t-8.5 46q0 26.5 10 49.75t27.5 40.75 40.75 27.5 49.75 10 49.75-10 40.75-27.5 27.5-40.75 10-49.75-10-49.75-27.5-40.75-40.75-27.5-49.75-10q-21 0-42 7l-82.5-123.5q29-27 44.75-63.25t15.75-75.75l75-12.5q7.5 17 19.75 31.25t27.5 24 33 15.25 36.75 5.5zM768 960q-13.5 0-25-5t-20.25-13.75-13.75-20.25-5-25 5-25 13.75-20.25 20.25-13.75 25-5 25 5 20.25 13.75 13.75 20.25 5 25-5 25-13.75 20.25-20.25 13.75-25 5zM128 256q13.5 0 25 5t20.25 13.75 13.75 20.25 5 25-5 25-13.75 20.25-20.25 13.75-25 5-25-5-20.25-13.75-13.75-20.25-5-25 5-25 13.75-20.25 20.25-13.75 25-5zM704 128q0 13.5-5 25t-13.75 20.25-20.25 13.75-25 5-25-5-20.25-13.75-13.75-20.25-5-25 5-25 13.75-20.25 20.25-13.75 25-5 25 5 20.25 13.75 13.75 20.25 5 25zM192 832q0-13.5 5-25t13.75-20.25 20.25-13.75 25-5 25 5 20.25 13.75 13.75 20.25 5 25-5 25-13.75 20.25-20.25 13.75-25 5-25-5-20.25-13.75-13.75-20.25-5-25zM512 384q26.5 0 49.75 10t40.75 27.5 27.5 40.75 10 49.75-10 49.75-27.5 40.75-40.75 27.5-49.75 10-49.75-10-40.75-27.5-27.5-40.75-10-49.75 10-49.75 27.5-40.75 40.75-27.5 49.75-10zM896 384q13.5 0 25 5t20.25 13.75 13.75 20.25 5 25-5 25-13.75 20.25-20.25 13.75-25 5-25-5-20.25-13.75-13.75-20.25-5-25 5-25 13.75-20.25 20.25-13.75 25-5z" />
<glyph unicode="&#xf270;" glyph-name="uniF270" d="M640 640v32q0 26.5-10 49.75t-27.5 40.75-40.75 27.5-49.75 10q-22 0-42-7t-36.5-19.75-28.25-30.5-17.25-38.75q39-1 73.25-16.5t59.75-41.25 40.25-60.5 14.75-73.75q0-40-15-74.75t-41.25-61-61.25-41.25-74.5-15v64q26.5 0 49.75 10t40.75 27.5 27.5 40.75 10 49.75q0 26-9.75 49t-26.75 40.5-40 27.75-49 10.75q5-30 18.25-57t34.25-49l-46-44q-36 37-54.5 83.75t-18.5 98.25q0 39.5 15 74.5t41.25 61.25 61 41.25 74.75 15q39.5 0 74.5-15t61.25-41.25 41.25-61.25 15-74.5v-32h-64zM832 704q0-60-17.5-112.25t-53.5-99.75q-29.5-39-43.25-81.25t-13.75-90.75q0-53-20-99.75t-54.75-81.5-81.5-54.75-99.75-20-99.75 20-81.5 54.75-54.75 81.5-20 99.75h64q0-40 15-74.75t41.25-61 61-41.25 74.75-15q39.5 0 74.5 15t61.25 41.25 41.25 61 15 74.75q0 60.5 17.5 112.25t53.5 99.75q57 75.5 57 172 0 53-20.25 99.5t-55 81.25-81.25 55-99.5 20.25-99.5-20.25-81.25-55-55-81.25-20.25-99.5h-64q0 66.5 25 124.75t68.5 101.75 101.75 68.5 124.75 25 124.75-25 101.75-68.5 68.5-101.75 25-124.75z" />
<glyph unicode="&#xf271;" glyph-name="uniF271" d="M800 640q20 0 37.5-7.5t30.5-20.5 20.5-30.5 7.5-37.5v-256q0-59.5-22.75-112t-61.75-91.5-91.5-61.75-112-22.75q-72 0-134.25 27.5t-112.75 78l-236 236q-14 14-21.5 32.5t-7.5 38q0 21 8 39.25t21.5 31.75 31.75 21.25 38.75 7.75q20 0 38-7.75t32.5-21.75l53.5-53v498.5q0 20 7.5 37.5t20.5 30.5 30.5 20.5 37.5 7.5 37.5-7.5 30.5-20.5 20.5-30.5 7.5-37.5v-229.5q16.5 5.5 32 5.5 25 0 46.5-11.75t34.5-32.75q22.5 12.5 47 12.5 25 0 46.5-11.75t34.5-32.75q22.5 12.5 47 12.5zM832 544q0 13-9.5 22.5t-22.5 9.5q-17 0-23.75-9.5t-8-23.75-0.25-30.75-0.25-30.75-8-23.75-23.75-9.5q-18.5 0-25.25 11.75t-7.75 29.75 1 38.5 1 38.5-7.75 29.75-25.25 11.75q-17 0-23.75-9.5t-8-23.75-0.25-30.75-0.25-30.75-8-23.75-23.75-9.5q-18.5 0-25.25 11.75t-7.75 29.75 1 38.5 1 38.5-7.75 29.75-25.25 11.75q-17 0-23.75-9.5t-8-23.75-0.25-30.75-0.25-30.75-8-23.75-23.75-9.5q-13 0-22.5 9.5t-9.5 22.5v384q0 13-9.5 22.5t-22.5 9.5-22.5-9.5-9.5-22.5v-521.5q0-11.5-4.25-21.25t-11.5-17.25-17.25-11.75-21-4.25-21.25 4-18.25 12l-69.5 69.5q-10.5 10.5-25 10.5t-25.25-10.5-10.75-25.5q0-14.5 10.5-25l236-236.5q42-42 92-64.25t109.5-22.25q46.5 0 87.25 17.75t71 48 48 71 17.75 87.25v256z" />
<glyph unicode="&#xf272;" glyph-name="uniF272" d="M512 704q-40 0-74.75-15t-61-41.25-41.25-61.25-15-74.5q0-40 15-74.75t41.25-61 61-41.25 74.75-15q39.5 0 74.5 15t61.25 41.25 41.25 61 15 74.75q0 32-11 64h67q4-16 6-32t2-32q0-53-20.25-99.5t-55-81.25-81.25-55-99.5-20.25-99.5 20.25-81.25 55-54.75 81.25-20 99.5 20 99.5 54.75 81.25 81.25 55 99.5 20.25q16 0 32-2t32-6v-67q-32 11-64 11zM945 626.5q15-56.5 15-114.5 0-61.5-16-118.75t-45.25-107-70.25-90.75-90.75-70.25-107-45.25-118.75-16-118.75 16-107 45.25-90.75 70.25-70.25 90.75-45.25 106.75-16 119q0 61.5 16 118.75t45.25 107 70.25 90.75 90.75 70.25 106.75 45.25 119 16q58 0 114.5-15l-50.5-50.5v-4q-16 2.5-32 4t-32 1.5q-53 0-102-13.75t-91.75-38.75-77.75-60-60-77.75-38.75-91.75-13.75-102 13.75-102 38.75-91.75 60-77.75 77.75-60 91.75-38.75 102-13.75 102 13.75 91.75 38.75 77.75 60 60 77.75 38.75 91.75 13.75 102q0 16-1.5 32t-4 32h4zM640 685.5v143.5l192 192v-189h189l-192-192h-143.5l-111.5-111.5q2-7.5 2-16.5 0-13.5-5-25t-13.75-20.25-20.25-13.75-25-5-25 5-20.25 13.75-13.75 20.25-5 25 5 25 13.75 20.25 20.25 13.75 25 5q9 0 16.5-2zM704 704h98.5l64 64h-98.5v98.5l-64-64v-98.5z" />
</font>
</defs>
</svg>
